<svg width="250" height="180" viewBox="0 0 250 180" fill="none" xmlns="http://www.w3.org/2000/svg">
<path d="M41.0016 56.2H71.2016V70.2H21.6016V57.2L51.6016 14H21.6016V0H71.2016V13L41.0016 56.2ZM139.372 14.4L104.372 96.7H85.9719L98.7719 68.3L76.0719 14.4H95.1719L108.072 49.3L120.872 14.4H139.372ZM162.655 23.7C164.655 20.6333 167.155 18.2333 170.155 16.5C173.155 14.7 176.489 13.8 180.155 13.8V31.9H175.455C171.189 31.9 167.989 32.8333 165.855 34.7C163.722 36.5 162.655 39.7 162.655 44.3V70.2H145.555V14.4H162.655V23.7ZM184.929 42.2C184.929 36.4667 185.996 31.4333 188.129 27.1C190.329 22.7667 193.296 19.4333 197.029 17.1C200.762 14.7667 204.929 13.6 209.529 13.6C213.462 13.6 216.896 14.4 219.829 16C222.829 17.6 225.129 19.7 226.729 22.3V14.4H243.829V70.2H226.729V62.3C225.062 64.9 222.729 67 219.729 68.6C216.796 70.2 213.362 71 209.429 71C204.896 71 200.762 69.8333 197.029 67.5C193.296 65.1 190.329 61.7333 188.129 57.4C185.996 53 184.929 47.9333 184.929 42.2ZM226.729 42.3C226.729 38.0333 225.529 34.6667 223.129 32.2C220.796 29.7333 217.929 28.5 214.529 28.5C211.129 28.5 208.229 29.7333 205.829 32.2C203.496 34.6 202.329 37.9333 202.329 42.2C202.329 46.4667 203.496 49.8667 205.829 52.4C208.229 54.8667 211.129 56.1 214.529 56.1C217.929 56.1 220.796 54.8667 223.129 52.4C225.529 49.9333 226.729 46.5667 226.729 42.3Z" fill="white"/>
<path d="M134.192 90.7614L130.952 101.841H127.932L125.912 94.1014L123.892 101.841H120.852L117.592 90.7614H120.432L122.392 99.2014L124.512 90.7614H127.472L129.552 99.1814L131.512 90.7614H134.192ZM142.627 102.021C141.56 102.021 140.6 101.788 139.747 101.321C138.893 100.841 138.22 100.168 137.727 99.3014C137.247 98.4348 137.007 97.4348 137.007 96.3014C137.007 95.1681 137.253 94.1681 137.747 93.3014C138.253 92.4348 138.94 91.7681 139.807 91.3014C140.673 90.8214 141.64 90.5814 142.707 90.5814C143.773 90.5814 144.74 90.8214 145.607 91.3014C146.473 91.7681 147.153 92.4348 147.647 93.3014C148.153 94.1681 148.407 95.1681 148.407 96.3014C148.407 97.4348 148.147 98.4348 147.627 99.3014C147.12 100.168 146.427 100.841 145.547 101.321C144.68 101.788 143.707 102.021 142.627 102.021ZM142.627 99.5814C143.133 99.5814 143.607 99.4614 144.047 99.2214C144.5 98.9681 144.86 98.5948 145.127 98.1014C145.393 97.6081 145.527 97.0081 145.527 96.3014C145.527 95.2481 145.247 94.4414 144.687 93.8814C144.14 93.3081 143.467 93.0214 142.667 93.0214C141.867 93.0214 141.193 93.3081 140.647 93.8814C140.113 94.4414 139.847 95.2481 139.847 96.3014C139.847 97.3548 140.107 98.1681 140.627 98.7414C141.16 99.3014 141.827 99.5814 142.627 99.5814ZM155.261 92.4814C155.621 91.8948 156.087 91.4348 156.661 91.1014C157.247 90.7681 157.914 90.6014 158.661 90.6014V93.5414H157.921C157.041 93.5414 156.374 93.7481 155.921 94.1614C155.481 94.5748 155.261 95.2948 155.261 96.3214V101.841H152.461V90.7614H155.261V92.4814ZM169.107 101.841L165.347 97.1214V101.841H162.547V87.0414H165.347V95.4614L169.067 90.7614H172.707L167.827 96.3214L172.747 101.841H169.107ZM180.466 102.021C179.56 102.021 178.746 101.861 178.026 101.541C177.306 101.208 176.733 100.761 176.306 100.201C175.893 99.6414 175.666 99.0214 175.626 98.3414H178.446C178.5 98.7681 178.706 99.1214 179.066 99.4014C179.44 99.6814 179.9 99.8214 180.446 99.8214C180.98 99.8214 181.393 99.7148 181.686 99.5014C181.993 99.2881 182.146 99.0148 182.146 98.6814C182.146 98.3214 181.96 98.0548 181.586 97.8814C181.226 97.6948 180.646 97.4948 179.846 97.2814C179.02 97.0814 178.34 96.8748 177.806 96.6614C177.286 96.4481 176.833 96.1214 176.446 95.6814C176.073 95.2414 175.886 94.6481 175.886 93.9014C175.886 93.2881 176.06 92.7281 176.406 92.2214C176.766 91.7148 177.273 91.3148 177.926 91.0214C178.593 90.7281 179.373 90.5814 180.266 90.5814C181.586 90.5814 182.64 90.9148 183.426 91.5814C184.213 92.2348 184.646 93.1214 184.726 94.2414H182.046C182.006 93.8014 181.82 93.4548 181.486 93.2014C181.166 92.9348 180.733 92.8014 180.186 92.8014C179.68 92.8014 179.286 92.8948 179.006 93.0814C178.74 93.2681 178.606 93.5281 178.606 93.8614C178.606 94.2348 178.793 94.5214 179.166 94.7214C179.54 94.9081 180.12 95.1014 180.906 95.3014C181.706 95.5014 182.366 95.7081 182.886 95.9214C183.406 96.1348 183.853 96.4681 184.226 96.9214C184.613 97.3614 184.813 97.9481 184.826 98.6814C184.826 99.3214 184.646 99.8948 184.286 100.401C183.94 100.908 183.433 101.308 182.766 101.601C182.113 101.881 181.346 102.021 180.466 102.021ZM191.925 92.3614C192.285 91.8548 192.778 91.4348 193.405 91.1014C194.045 90.7548 194.771 90.5814 195.585 90.5814C196.531 90.5814 197.385 90.8148 198.145 91.2814C198.918 91.7481 199.525 92.4148 199.965 93.2814C200.418 94.1348 200.645 95.1281 200.645 96.2614C200.645 97.3948 200.418 98.4014 199.965 99.2814C199.525 100.148 198.918 100.821 198.145 101.301C197.385 101.781 196.531 102.021 195.585 102.021C194.771 102.021 194.051 101.855 193.425 101.521C192.811 101.188 192.311 100.768 191.925 100.261V107.121H189.125V90.7614H191.925V92.3614ZM197.785 96.2614C197.785 95.5948 197.645 95.0214 197.365 94.5414C197.098 94.0481 196.738 93.6748 196.285 93.4214C195.845 93.1681 195.365 93.0414 194.845 93.0414C194.338 93.0414 193.858 93.1748 193.405 93.4414C192.965 93.6948 192.605 94.0681 192.325 94.5614C192.058 95.0548 191.925 95.6348 191.925 96.3014C191.925 96.9681 192.058 97.5481 192.325 98.0414C192.605 98.5348 192.965 98.9148 193.405 99.1814C193.858 99.4348 194.338 99.5614 194.845 99.5614C195.365 99.5614 195.845 99.4281 196.285 99.1614C196.738 98.8948 197.098 98.5148 197.365 98.0214C197.645 97.5281 197.785 96.9414 197.785 96.2614ZM203.959 96.2614C203.959 95.1414 204.179 94.1481 204.619 93.2814C205.073 92.4148 205.679 91.7481 206.439 91.2814C207.213 90.8148 208.073 90.5814 209.019 90.5814C209.846 90.5814 210.566 90.7481 211.179 91.0814C211.806 91.4148 212.306 91.8348 212.679 92.3414V90.7614H215.499V101.841H212.679V100.221C212.319 100.741 211.819 101.175 211.179 101.521C210.553 101.855 209.826 102.021 208.999 102.021C208.066 102.021 207.213 101.781 206.439 101.301C205.679 100.821 205.073 100.148 204.619 99.2814C204.179 98.4014 203.959 97.3948 203.959 96.2614ZM212.679 96.3014C212.679 95.6214 212.546 95.0414 212.279 94.5614C212.013 94.0681 211.653 93.6948 211.199 93.4414C210.746 93.1748 210.259 93.0414 209.739 93.0414C209.219 93.0414 208.739 93.1681 208.299 93.4214C207.859 93.6748 207.499 94.0481 207.219 94.5414C206.953 95.0214 206.819 95.5948 206.819 96.2614C206.819 96.9281 206.953 97.5148 207.219 98.0214C207.499 98.5148 207.859 98.8948 208.299 99.1614C208.753 99.4281 209.233 99.5614 209.739 99.5614C210.259 99.5614 210.746 99.4348 211.199 99.1814C211.653 98.9148 212.013 98.5414 212.279 98.0614C212.546 97.5681 212.679 96.9814 212.679 96.3014ZM219.514 96.3014C219.514 95.1548 219.747 94.1548 220.214 93.3014C220.681 92.4348 221.327 91.7681 222.154 91.3014C222.981 90.8214 223.927 90.5814 224.994 90.5814C226.367 90.5814 227.501 90.9281 228.394 91.6214C229.301 92.3014 229.907 93.2614 230.214 94.5014H227.194C227.034 94.0214 226.761 93.6481 226.374 93.3814C226.001 93.1014 225.534 92.9614 224.974 92.9614C224.174 92.9614 223.541 93.2548 223.074 93.8414C222.607 94.4148 222.374 95.2348 222.374 96.3014C222.374 97.3548 222.607 98.1748 223.074 98.7614C223.541 99.3348 224.174 99.6214 224.974 99.6214C226.107 99.6214 226.847 99.1148 227.194 98.1014H230.214C229.907 99.3014 229.301 100.255 228.394 100.961C227.487 101.668 226.354 102.021 224.994 102.021C223.927 102.021 222.981 101.788 222.154 101.321C221.327 100.841 220.681 100.175 220.214 99.3214C219.747 98.4548 219.514 97.4481 219.514 96.3014ZM244.565 96.0614C244.565 96.4614 244.539 96.8214 244.485 97.1414H236.385C236.452 97.9414 236.732 98.5681 237.225 99.0214C237.719 99.4748 238.325 99.7014 239.045 99.7014C240.085 99.7014 240.825 99.2548 241.265 98.3614H244.285C243.965 99.4281 243.352 100.308 242.445 101.001C241.539 101.681 240.425 102.021 239.105 102.021C238.039 102.021 237.079 101.788 236.225 101.321C235.385 100.841 234.725 100.168 234.245 99.3014C233.779 98.4348 233.545 97.4348 233.545 96.3014C233.545 95.1548 233.779 94.1481 234.245 93.2814C234.712 92.4148 235.365 91.7481 236.205 91.2814C237.045 90.8148 238.012 90.5814 239.105 90.5814C240.159 90.5814 241.099 90.8081 241.925 91.2614C242.765 91.7148 243.412 92.3614 243.865 93.2014C244.332 94.0281 244.565 94.9814 244.565 96.0614ZM241.665 95.2614C241.652 94.5414 241.392 93.9681 240.885 93.5414C240.379 93.1014 239.759 92.8814 239.025 92.8814C238.332 92.8814 237.745 93.0948 237.265 93.5214C236.799 93.9348 236.512 94.5148 236.405 95.2614H241.665Z" fill="white"/>
</svg>
