<?xml version="1.0" standalone="no"?>
<!DOCTYPE svg PUBLIC "-//W3C//DTD SVG 20010904//EN"
 "http://www.w3.org/TR/2001/REC-SVG-20010904/DTD/svg10.dtd">
<svg version="1.0" xmlns="http://www.w3.org/2000/svg"
 width="2286.000000pt" height="4096.000000pt" viewBox="0 0 2286.000000 4096.000000"
 preserveAspectRatio="xMidYMid meet">

<g transform="translate(0.000000,4096.000000) scale(0.100000,-0.100000)"
fill="#000000" stroke="none">
<path d="M14550 27783 c-27 -10 -60 -41 -88 -80 l-27 -38 0 -1205 0 -1205 29
-42 c51 -76 76 -82 341 -84 127 -1 244 -4 262 -6 37 -6 53 -39 53 -108 0 -35
4 -44 21 -48 12 -3 19 -11 17 -18 -8 -25 -74 -37 -198 -38 -137 -1 -152 -6
-211 -70 l-29 -32 0 -959 0 -958 26 -40 c16 -24 42 -47 67 -58 40 -18 116 -19
2037 -19 l1996 0 40 32 c77 61 74 19 74 1049 l-1 909 -22 45 c-13 27 -39 57
-65 75 l-44 30 -891 -3 c-491 -2 -905 1 -922 6 -37 10 -42 35 -22 100 9 26 18
79 20 119 3 40 10 81 16 91 6 10 17 64 25 118 9 54 22 137 30 184 8 47 22 128
31 180 9 52 25 132 36 176 10 45 19 94 19 109 0 16 9 69 21 119 37 166 50 230
59 296 4 36 16 99 25 140 9 41 17 116 18 165 l2 90 -48 74 c-27 40 -53 78 -58
85 -5 6 -38 54 -72 106 -203 305 -217 320 -305 320 -30 0 -62 6 -76 15 -13 9
-59 20 -102 25 -44 5 -104 14 -134 20 -30 6 -94 15 -143 20 -49 6 -101 17
-115 24 -15 8 -84 73 -154 145 -70 72 -139 136 -154 141 -27 11 -1357 13
-1384 3z m1360 -233 c5 -210 9 -232 50 -271 47 -46 78 -52 275 -57 125 -3 193
-8 197 -16 4 -6 8 -452 8 -992 0 -769 -3 -984 -12 -996 -7 -9 -32 -26 -56 -38
l-43 -22 -885 5 -885 5 -34 27 c-70 52 -65 -39 -65 1258 0 1301 -3 1244 63
1286 31 20 43 21 707 18 l675 -2 5 -205z m121 93 c41 -43 135 -140 209 -216
74 -76 135 -144 135 -150 0 -9 -44 -13 -157 -15 -174 -3 -211 6 -251 60 -18
24 -20 45 -22 212 -2 103 1 186 5 186 4 0 41 -35 81 -77z m464 -218 c50 -8
140 -22 200 -31 165 -25 159 -21 151 -102 -4 -37 -16 -120 -28 -184 -24 -130
-19 -170 24 -218 47 -53 57 -56 253 -90 61 -10 123 -23 139 -29 l29 -11 -7
-83 c-4 -45 -12 -102 -17 -127 -10 -43 -22 -104 -55 -290 -9 -47 -20 -105 -24
-130 -5 -25 -14 -79 -20 -120 -7 -41 -14 -78 -16 -82 -3 -4 -12 -47 -20 -95
-21 -123 -41 -235 -60 -323 -8 -41 -21 -113 -29 -160 -8 -47 -23 -125 -33
-175 -11 -49 -23 -117 -27 -150 -4 -33 -11 -68 -16 -77 -9 -17 -60 -18 -852
-18 -775 0 -844 1 -867 17 -55 39 -65 55 -65 113 l0 55 600 5 600 5 48 29 c89
53 82 -38 80 1073 -2 1103 5 1007 -80 1099 -94 99 -98 105 -85 113 14 8 56 5
177 -14z m443 -162 c16 -27 48 -73 69 -103 22 -30 73 -104 114 -165 40 -60 80
-116 87 -123 6 -8 17 -22 22 -33 9 -16 7 -19 -12 -19 -13 0 -41 5 -63 10 -22
5 -77 14 -123 20 -94 12 -126 23 -164 59 -23 20 -28 33 -28 70 0 53 51 331 61
331 3 0 20 -21 37 -47z m1927 -2413 c51 -47 66 -92 63 -183 l-3 -82 -2085 0
-2085 0 -3 98 c-2 86 0 103 18 133 12 19 31 41 43 49 19 13 254 15 2024 13
l2001 -3 27 -25z m49 -316 c14 -6 16 -86 16 -808 l0 -803 -30 -45 c-56 -85 97
-78 -1737 -73 -896 3 -1784 5 -1975 5 l-346 0 -49 44 -48 44 -3 808 c-1 445 0
814 3 821 3 11 414 13 2079 13 1141 0 2081 -3 2090 -6z"/>
<path d="M14951 24371 c-11 -7 -13 -126 -13 -677 0 -631 1 -668 18 -681 15
-11 356 -13 1867 -13 1255 0 1855 3 1868 10 10 6 19 21 18 33 l0 22 -16 -22
-15 -23 -409 0 c-253 0 -418 4 -435 10 -18 7 -30 7 -39 0 -9 -7 -175 -9 -521
-6 -280 2 -518 4 -529 3 -11 0 -303 1 -650 1 -346 1 -738 2 -870 2 -132 0
-245 4 -252 8 -10 6 -11 106 -8 437 3 237 5 435 5 440 0 6 -3 49 -6 96 -10
135 -19 129 199 129 125 0 187 -4 195 -12 8 -8 15 -8 25 1 11 8 182 10 683 7
368 -2 680 -3 694 -3 14 1 458 1 988 1 l962 1 0 52 c0 61 -17 81 -22 26 l-3
-38 -413 -3 c-287 -1 -419 1 -434 9 -18 10 -20 18 -16 81 2 42 9 72 17 77 7 4
197 8 422 9 l409 1 16 -24 c9 -14 13 -33 9 -45 -4 -11 -2 -20 4 -20 6 0 11 21
11 50 0 38 -4 52 -19 60 -24 12 -3719 14 -3740 1z m388 -35 c17 -11 15 -152
-3 -159 -8 -3 -85 -4 -173 -1 -87 2 -166 4 -175 4 -16 0 -18 10 -18 78 0 43 3
82 7 85 8 9 347 2 362 -7z m2453 -9 c4 -7 8 -42 8 -79 0 -62 -2 -68 -22 -73
-13 -3 -240 -4 -506 -3 -416 3 -484 5 -492 18 -11 17 -13 73 -4 118 8 40 -22
38 549 34 347 -2 461 -6 467 -15z m-1064 -69 l3 -76 -28 -6 c-34 -7 -1257 -6
-1295 1 -27 4 -28 7 -28 68 0 35 3 71 6 79 6 15 71 16 673 14 l666 -3 3 -77z"/>
<path d="M18701 23464 c0 -11 3 -14 6 -6 3 7 2 16 -1 19 -3 4 -6 -2 -5 -13z"/>
<path d="M18703 23225 c0 -22 2 -30 4 -17 2 12 2 30 0 40 -3 9 -5 -1 -4 -23z"/>
<path d="M4190 27770 c-93 -9 -135 -26 -181 -75 -28 -28 -38 -49 -44 -89 -5
-28 -9 -217 -11 -421 -2 -316 -10 -464 -27 -481 -1 -2 -493 -5 -1092 -7 -886
-4 -1098 -7 -1131 -18 -57 -19 -121 -75 -150 -131 l-24 -47 0 -987 0 -987 22
-43 c28 -57 72 -96 133 -120 48 -17 104 -19 1145 -24 l1095 -5 7 -85 c3 -47 6
-167 7 -266 1 -152 -2 -184 -14 -194 -12 -10 -273 -14 -1263 -17 -837 -2
-1265 -7 -1302 -14 -30 -6 -63 -19 -72 -28 -58 -54 -72 -70 -91 -106 l-22 -40
0 -1120 0 -1120 24 -40 c46 -75 92 -110 171 -128 14 -3 846 -7 1850 -9 l1825
-3 60 29 c76 36 91 50 124 111 l26 50 5 920 c3 506 6 921 8 923 1 1 633 2
1405 2 771 1 1446 5 1500 9 91 9 101 12 144 45 48 37 75 73 86 116 4 14 7 965
7 2113 0 1967 -1 2092 -17 2138 -23 64 -79 119 -140 137 -41 13 -335 15 -2018
17 -1083 1 -2004 -1 -2045 -5z m535 -33 c264 -1 1153 2 1976 6 1652 8 1551 12
1610 -55 44 -49 54 -90 54 -233 l0 -130 -2187 -2 -2188 -1 0 144 c0 153 10
194 57 236 25 23 115 45 161 40 20 -2 253 -4 517 -5z m3644 -481 c8 -10 11
-516 9 -1947 -3 -1778 -4 -1936 -20 -1964 -22 -41 -56 -71 -100 -89 -33 -14
-202 -16 -1460 -15 -783 0 -1446 3 -1474 6 l-51 5 -7 180 c-7 199 -13 218 -92
292 -69 65 -81 66 -666 66 l-525 0 -7 46 c-9 69 -7 443 3 487 5 22 20 47 36
59 48 37 77 72 96 115 19 41 20 77 22 1025 l2 983 -31 55 c-18 32 -50 70 -77
90 l-47 35 0 287 c0 220 3 288 13 291 6 3 991 6 2188 6 1830 1 2178 -1 2188
-13z m-4383 -627 c27 -19 61 -55 76 -80 l28 -44 1 -981 c1 -967 0 -982 -20
-1021 -29 -59 -81 -99 -143 -113 -73 -16 -2177 -8 -2228 8 -48 16 -104 64
-125 108 -16 33 -17 108 -16 1007 0 697 4 981 12 1006 14 43 41 75 94 110 l40
26 725 5 c399 3 901 5 1116 5 l391 -1 49 -35z m1116 -2910 c48 -24 96 -73 103
-104 18 -87 24 -2205 6 -2273 -12 -42 -65 -98 -120 -127 -27 -14 -216 -15
-1883 -13 -1724 3 -1855 4 -1883 20 -17 9 -45 32 -62 50 -66 68 -63 10 -63
1191 0 1205 -3 1152 71 1227 37 37 51 43 134 54 17 2 845 2 1842 0 l1811 -3
44 -22z"/>
<path d="M6160 26929 c0 -57 4 -88 10 -84 6 3 10 23 10 43 0 48 12 65 41 60
21 -3 24 -9 27 -48 5 -68 22 -74 22 -8 0 62 -8 73 -55 73 -25 0 -30 4 -33 28
-2 15 -8 27 -13 27 -5 0 -9 -41 -9 -91z"/>
<path d="M6660 26935 c0 -50 4 -85 10 -85 6 0 10 35 10 85 0 50 -4 85 -10 85
-6 0 -10 -35 -10 -85z"/>
<path d="M6319 26988 c-4 -39 4 -125 13 -135 6 -7 20 -13 32 -13 20 1 20 1 2
15 -16 12 -18 23 -13 65 3 28 4 57 0 65 -6 18 -33 20 -34 3z"/>
<path d="M4461 26970 c-44 -7 -72 -30 -91 -78 -6 -13 -10 -158 -10 -329 0
-289 1 -307 20 -338 46 -74 13 -70 614 -70 l538 0 39 44 39 44 0 323 0 322
-27 33 c-51 60 -45 59 -585 58 -271 -1 -513 -5 -537 -9z m1038 -35 c57 -29 59
-36 62 -320 3 -374 4 -371 -26 -401 l-25 -25 -529 3 -529 3 -26 24 -26 24 0
321 c1 299 2 323 19 343 11 13 28 26 40 30 11 5 243 9 515 11 436 3 498 1 525
-13z"/>
<path d="M6075 26959 c-16 -5 -39 -16 -49 -24 -16 -12 -17 -17 -6 -29 26 -32
100 -58 100 -36 0 6 -6 10 -14 10 -8 0 -24 8 -37 19 l-23 18 32 17 c18 9 32
21 32 26 0 6 -1 10 -2 9 -2 0 -16 -5 -33 -10z"/>
<path d="M6486 26940 c2 -14 6 -40 8 -58 5 -39 10 -47 25 -37 6 3 11 26 11 50
0 30 5 45 16 49 27 10 44 -13 44 -60 0 -24 5 -44 10 -44 15 0 12 107 -2 117
-7 4 -36 8 -65 8 -49 0 -51 -1 -47 -25z"/>
<path d="M6416 26952 c-2 -4 -1 -32 4 -62 7 -55 8 -55 9 -12 0 24 6 52 11 63
8 15 7 19 -4 19 -8 0 -17 -3 -20 -8z"/>
<path d="M4433 25865 c-18 -7 -42 -29 -53 -47 -19 -31 -20 -50 -20 -359 0
-457 -64 -413 605 -417 275 -2 514 -1 530 3 17 3 49 24 73 46 l43 41 -3 327
c-3 358 -5 372 -63 401 -44 22 -1063 27 -1112 5z m1098 -54 l29 -29 0 -314 c0
-172 -3 -322 -6 -334 -3 -11 -19 -28 -35 -38 -26 -16 -68 -17 -495 -14 -257 1
-493 5 -526 8 -101 10 -98 -2 -98 374 l0 320 27 28 27 28 524 0 524 0 29 -29z"/>
<path d="M6057 25821 c-28 -15 -46 -32 -44 -41 3 -17 37 -35 82 -45 l30 -7
-25 21 c-14 11 -30 21 -37 21 -27 0 -21 20 10 34 19 8 37 19 41 24 13 22 -11
19 -57 -7z"/>
<path d="M6182 25830 c-42 -26 -48 -44 -28 -86 22 -47 57 -62 91 -40 14 9 25
21 25 26 0 13 -27 13 -35 0 -16 -26 -64 4 -65 41 0 24 28 43 61 41 33 -3 38
12 10 28 -25 13 -20 13 -59 -10z"/>
<path d="M6307 25822 c-24 -26 -22 -29 23 -52 52 -27 55 -55 4 -47 -25 4 -34
2 -31 -6 5 -17 59 -20 81 -4 27 20 13 53 -30 69 -42 15 -39 34 5 31 41 -1 36
21 -5 25 -20 2 -36 -4 -47 -16z"/>
<path d="M6432 25828 c3 -7 19 -16 36 -20 43 -11 40 -33 -8 -54 -21 -10 -37
-21 -34 -26 3 -4 18 -1 34 7 16 8 35 15 43 15 8 0 22 9 33 21 16 17 16 22 4
29 -8 6 -22 10 -30 10 -8 0 -24 7 -34 15 -24 18 -49 20 -44 3z"/>
<path d="M6210 25088 c-5 -13 -25 -61 -44 -107 -38 -89 -41 -101 -27 -101 8 0
42 72 71 150 7 19 17 39 22 45 11 13 10 35 -2 35 -6 0 -15 -10 -20 -22z"/>
<path d="M6270 25085 c-6 -16 -10 -58 -8 -94 3 -61 5 -66 27 -69 20 -3 23 -1
16 15 -15 36 -17 53 -11 78 5 20 12 26 29 23 19 -3 22 -9 22 -50 0 -26 5 -52
12 -58 12 -13 33 -6 33 11 0 6 -4 7 -10 4 -6 -4 -10 15 -10 49 0 50 -2 56 -23
61 -13 4 -30 5 -38 3 -9 -2 -14 5 -14 19 -1 35 -13 38 -25 8z"/>
<path d="M6526 25102 c-2 -4 -6 -44 -7 -87 -2 -68 0 -80 14 -83 15 -3 17 8 17
87 0 80 -8 108 -24 83z"/>
<path d="M6065 25039 c-71 -35 -72 -42 -15 -72 56 -29 70 -33 70 -16 0 5 -16
17 -35 25 -19 8 -35 18 -35 22 0 4 15 14 32 22 18 8 34 21 36 28 5 16 -6 15
-53 -9z"/>
<path d="M6434 25036 c-3 -7 -4 -33 -2 -56 3 -47 24 -68 54 -56 18 8 18 9 -3
17 -15 5 -23 17 -23 32 0 13 -5 28 -12 35 -8 8 -8 15 2 27 9 11 9 15 1 15 -6
0 -14 -6 -17 -14z"/>
<path d="M6475 25040 c3 -5 10 -10 16 -10 5 0 9 5 9 10 0 6 -7 10 -16 10 -8 0
-12 -4 -9 -10z"/>
<path d="M6590 25044 c0 -3 16 -12 35 -20 19 -8 35 -18 35 -22 0 -5 -18 -16
-40 -26 -22 -10 -38 -22 -35 -27 4 -5 13 -5 23 0 9 5 36 17 60 26 23 10 42 22
42 26 0 5 -20 18 -44 29 -44 19 -76 26 -76 14z"/>
<path d="M4603 24798 c-61 -44 -63 -55 -63 -414 0 -361 2 -375 63 -412 33 -21
44 -22 381 -22 l346 0 38 34 37 34 3 349 c2 191 0 358 -3 370 -3 12 -17 35
-31 52 l-26 31 -357 0 c-353 0 -357 0 -388 -22z m726 -22 c49 -26 51 -43 51
-385 0 -342 -4 -375 -48 -392 -29 -11 -661 -15 -703 -4 -15 4 -31 17 -37 30
-14 30 -18 686 -5 710 5 9 23 25 39 36 27 18 50 19 352 19 260 0 328 -3 351
-14z"/>
<path d="M5114 24440 c-31 -12 -74 -68 -74 -97 0 -37 58 -90 113 -104 50 -12
68 -38 47 -64 -16 -19 -71 -19 -115 -1 -39 17 -50 8 -41 -29 8 -30 62 -49 127
-43 64 7 96 29 105 74 13 68 -4 88 -109 134 -39 17 -48 25 -45 43 3 20 9 22
68 22 62 1 65 2 68 26 2 19 -3 28 -23 37 -30 14 -90 15 -121 2z"/>
<path d="M4920 24318 c0 -68 -4 -129 -9 -137 -9 -13 -20 -14 -96 -8 -27 2 -30
-1 -27 -23 4 -37 18 -45 82 -45 48 0 63 4 84 24 26 24 26 27 26 168 l0 143
-30 0 -30 0 0 -122z"/>
<path d="M6250 24750 c0 -27 -3 -30 -33 -30 -41 0 -67 -26 -67 -66 0 -50 19
-66 75 -62 32 2 50 7 49 16 -1 6 -2 48 -2 92 -1 46 -6 80 -12 80 -5 0 -10 -13
-10 -30z m-16 -53 c12 -9 17 -23 14 -47 -3 -31 -6 -35 -33 -35 -27 0 -30 4
-33 33 -3 31 11 62 27 62 4 0 15 -6 25 -13z"/>
<path d="M6048 24699 c-20 -10 -39 -22 -42 -27 -6 -9 83 -62 104 -62 23 0 3
23 -30 34 -48 16 -48 33 -1 47 23 7 41 16 41 21 0 13 -32 7 -72 -13z"/>
<path d="M6322 24653 c2 -41 8 -68 15 -70 9 -3 12 14 10 66 -1 50 -6 71 -15
71 -10 0 -12 -17 -10 -67z"/>
<path d="M6372 24703 c9 -10 19 -29 22 -43 10 -36 28 -70 37 -70 11 0 49 89
49 114 -1 16 -6 11 -20 -18 -11 -22 -22 -41 -24 -44 -3 -2 -14 14 -26 37 -11
23 -28 41 -37 41 -15 0 -15 -2 -1 -17z"/>
<path d="M6520 24710 c0 -6 13 -13 30 -16 51 -11 56 -30 11 -47 -39 -16 -62
-37 -41 -37 7 0 24 6 38 14 15 8 40 19 55 25 39 15 31 30 -28 52 -57 22 -65
23 -65 9z"/>
<path d="M6217 23733 c-14 -25 -78 -195 -74 -199 7 -7 33 37 47 81 7 22 21 57
31 77 11 21 19 40 19 43 0 8 -18 6 -23 -2z"/>
<path d="M6085 23681 c-45 -17 -85 -36 -85 -41 1 -12 48 -38 80 -44 l35 -7
-32 21 c-39 26 -41 38 -8 46 13 3 29 12 36 20 12 15 6 16 -26 5z"/>
<path d="M6267 23683 c-4 -3 -7 -26 -7 -50 0 -47 30 -89 57 -79 8 3 26 6 39 6
22 0 24 4 24 49 0 59 -17 78 -22 25 -3 -40 -25 -61 -52 -51 -12 5 -16 19 -16
57 0 46 -7 60 -23 43z"/>
<path d="M6430 23625 c0 -37 4 -65 10 -65 6 0 10 28 10 65 0 37 -4 65 -10 65
-6 0 -10 -28 -10 -65z"/>
<path d="M6500 23681 c0 -5 10 -13 23 -17 41 -12 49 -25 31 -45 -21 -24 -3
-25 31 -3 29 19 32 30 8 37 -10 3 -35 12 -55 21 -21 9 -38 12 -38 7z"/>
<path d="M3487 26333 c-13 -16 -16 -93 -21 -620 -6 -718 -19 -653 128 -653 79
0 95 3 114 20 l22 21 0 603 0 603 -23 21 c-20 19 -35 22 -114 22 -73 0 -93 -3
-106 -17z m187 -29 c14 -6 16 -68 16 -605 l0 -599 -85 0 c-73 0 -86 3 -95 19
-11 22 -15 1173 -3 1184 8 9 146 9 167 1z"/>
<path d="M2300 26063 c-20 -26 -21 -32 -18 -501 3 -456 4 -474 22 -488 29 -21
199 -20 220 2 14 14 16 73 16 499 l0 484 -22 15 c-16 12 -47 16 -109 16 -83 0
-89 -1 -109 -27z m196 -25 c9 -9 8 -913 -1 -928 -8 -13 -115 -13 -149 0 l-26
10 0 458 c0 252 3 462 8 466 9 10 158 4 168 -6z"/>
<path d="M3102 26033 c-7 -3 -19 -18 -27 -33 -12 -24 -15 -88 -14 -377 1 -444
6 -518 38 -544 31 -25 184 -28 219 -3 l22 15 0 448 c0 542 11 501 -133 500
-51 0 -98 -3 -105 -6z m189 -50 c3 -53 -3 -869 -6 -872 -7 -7 -149 -1 -156 6
-10 10 -24 822 -15 857 6 26 8 26 91 26 74 0 85 -2 86 -17z"/>
<path d="M2705 25628 c-11 -6 -23 -16 -27 -22 -4 -6 -8 -120 -8 -252 0 -229 1
-243 21 -268 19 -25 25 -26 113 -26 145 0 136 -19 136 285 l0 254 -26 20 c-22
17 -41 21 -108 21 -44 0 -90 -6 -101 -12z m181 -32 c18 -13 19 -30 22 -234 3
-152 0 -227 -8 -241 -10 -20 -18 -22 -98 -19 l-87 3 -3 244 c-2 189 1 246 10
253 22 14 142 9 164 -6z"/>
<path d="M1907 25582 c-15 -16 -17 -49 -17 -248 0 -183 3 -234 14 -250 13 -17
27 -19 114 -19 69 0 104 4 115 14 15 12 17 42 17 246 l0 234 -26 20 c-37 29
-192 31 -217 3z m192 -36 c8 -9 11 -77 9 -222 l-3 -209 -79 -3 c-56 -2 -82 1
-87 10 -12 20 -10 410 3 425 15 18 142 18 157 -1z"/>
<path d="M17895 27556 c-27 -13 -61 -38 -75 -57 l-25 -34 0 -996 0 -996 47
-49 48 -49 1297 0 1298 0 40 27 c22 15 49 42 60 60 19 32 19 63 20 1013 l0
980 -28 42 c-54 84 58 78 -1367 81 l-1265 2 -50 -24z m2602 -36 c51 -31 64
-67 61 -168 l-3 -87 -1362 -3 -1361 -2 -7 31 c-11 47 4 163 25 194 10 16 29
34 42 41 18 11 280 13 1298 14 1247 0 1276 0 1307 -20z m57 -316 c14 -6 16
-90 16 -848 0 -940 4 -888 -70 -931 -35 -20 -48 -20 -1080 -20 -575 0 -1154 2
-1288 5 l-244 5 -34 37 -34 38 0 687 c0 379 -3 756 -7 839 -4 106 -2 157 6
172 l12 22 1354 0 c744 0 1360 -3 1369 -6z"/>
<path d="M17998 27049 c-17 -9 -18 -55 -18 -734 0 -568 3 -725 13 -732 21 -13
2381 -3 2389 10 11 18 10 93 -1 82 -5 -6 -11 -23 -13 -40 -3 -27 -7 -31 -43
-36 -22 -3 -458 -3 -970 -1 -784 4 -933 7 -946 19 -14 12 -17 12 -22 -2 -5
-13 -33 -15 -180 -15 -133 0 -177 3 -186 13 -14 17 -14 986 0 1004 7 7 6 14
-1 18 -11 7 -14 142 -4 169 5 14 31 16 184 16 100 0 181 -4 185 -9 3 -6 16 -4
30 3 20 10 137 13 553 11 450 -2 1048 -3 1310 -1 54 1 75 -3 82 -14 6 -9 10
-237 10 -567 0 -308 4 -553 9 -553 14 0 14 1339 0 1356 -10 12 -185 14 -1188
14 -780 -1 -1182 -4 -1193 -11z m897 -29 c6 -1 84 2 175 5 91 3 201 3 245 -2
44 -4 179 -4 300 1 154 6 229 5 249 -3 20 -7 33 -7 41 -1 8 7 96 9 231 8 l219
-3 3 -87 3 -88 -972 0 c-646 1 -977 4 -985 11 -8 7 -14 7 -19 -1 -4 -6 -68
-10 -175 -10 -202 0 -205 1 -197 91 3 32 8 62 12 68 8 14 351 15 360 1 4 -6
14 -4 28 6 22 16 59 16 482 4z"/>
<path d="M18393 26405 c0 -22 2 -30 4 -17 2 12 2 30 0 40 -3 9 -5 -1 -4 -23z"/>
<path d="M18390 26180 c0 -51 2 -91 5 -88 7 7 8 168 1 175 -3 4 -6 -36 -6 -87z"/>
<path d="M18388 26029 c-2 -14 -2 -34 2 -44 11 -30 20 7 11 42 l-8 28 -5 -26z"/>
<path d="M18390 25789 c0 -11 4 -18 10 -14 5 3 7 12 3 20 -7 21 -13 19 -13 -6z"/>
<path d="M11535 25860 c-174 -15 -292 -33 -343 -51 -30 -10 -66 -19 -80 -19
-24 0 -83 -20 -222 -76 -59 -24 -191 -92 -211 -110 -8 -8 -21 -14 -27 -14 -6
0 -15 -6 -19 -13 -4 -7 -19 -20 -33 -30 -14 -9 -34 -24 -46 -32 -29 -21 -52
-9 -60 31 -7 37 -31 45 -60 22 -21 -18 -75 -75 -94 -99 -8 -12 -25 -33 -37
-49 -13 -15 -23 -34 -23 -41 0 -8 -9 -27 -20 -44 -11 -16 -20 -44 -20 -61 0
-17 -7 -53 -15 -80 -8 -27 -15 -65 -15 -85 0 -57 -19 -98 -54 -116 -74 -37
-196 -197 -196 -257 0 -8 -9 -39 -21 -68 -20 -50 -21 -66 -16 -303 4 -190 9
-262 21 -299 9 -27 16 -70 16 -95 0 -26 7 -71 15 -101 8 -30 19 -93 25 -140
11 -103 2 -122 -64 -139 -28 -7 -52 -21 -66 -38 -38 -50 -70 -104 -70 -118 0
-8 -10 -33 -21 -55 -19 -35 -21 -53 -17 -138 3 -66 10 -107 22 -127 9 -16 21
-41 26 -55 29 -71 105 -162 175 -208 67 -44 114 -62 189 -71 50 -6 52 -7 79
-60 15 -30 27 -66 27 -79 0 -14 9 -43 19 -66 10 -23 30 -66 43 -96 34 -78 55
-112 122 -198 112 -145 231 -261 359 -347 31 -21 57 -44 57 -51 0 -8 -28 -35
-62 -61 -103 -80 -130 -110 -172 -200 -16 -33 -71 -73 -102 -73 -24 0 -175
-45 -200 -59 -10 -6 -55 -22 -99 -37 -44 -14 -117 -44 -163 -65 -46 -22 -88
-39 -94 -39 -5 0 -21 -9 -35 -20 -14 -11 -32 -20 -39 -20 -13 0 -98 -42 -119
-60 -6 -5 -38 -24 -70 -41 -32 -17 -77 -44 -99 -61 -180 -129 -230 -169 -292
-233 -83 -84 -149 -180 -218 -318 -63 -127 -87 -152 -151 -161 -90 -14 -175
-78 -216 -162 -26 -55 -29 -71 -29 -160 0 -54 5 -126 12 -159 22 -112 14 -218
-24 -330 -5 -16 -16 -52 -23 -80 -7 -27 -20 -63 -29 -80 -9 -16 -16 -42 -16
-57 0 -15 -7 -34 -16 -42 -8 -9 -18 -33 -21 -53 -3 -21 -14 -55 -24 -75 -11
-21 -19 -48 -19 -60 0 -13 -6 -33 -14 -44 -8 -11 -18 -38 -21 -60 -4 -21 -16
-53 -26 -70 -11 -17 -19 -42 -19 -55 -1 -13 -9 -42 -20 -64 -11 -22 -19 -52
-20 -66 0 -14 -7 -34 -15 -45 -8 -10 -17 -41 -21 -67 -4 -27 -13 -55 -21 -63
-8 -7 -18 -35 -23 -61 -4 -27 -16 -70 -25 -98 -10 -27 -22 -63 -27 -80 -6 -16
-15 -48 -20 -70 -6 -22 -19 -58 -29 -81 -11 -23 -19 -60 -19 -83 0 -23 -7 -55
-14 -70 -8 -15 -18 -52 -21 -82 -4 -30 -14 -76 -23 -104 -24 -72 -23 -353 1
-409 9 -21 17 -45 17 -53 0 -23 78 -175 110 -215 101 -122 134 -152 249 -227
71 -47 148 -82 236 -111 39 -12 74 -25 79 -28 44 -25 -108 -27 -2274 -28
-1235 -1 -2274 -5 -2310 -9 -68 -7 -129 -35 -166 -77 -26 -28 -74 -145 -74
-179 0 -27 47 -145 70 -175 24 -31 95 -73 142 -84 25 -5 233 -10 495 -10 397
0 453 -2 467 -16 20 -20 21 -114 2 -152 -7 -15 -16 -73 -20 -130 -3 -57 -12
-115 -20 -130 -7 -15 -16 -67 -19 -117 -4 -49 -11 -106 -17 -125 -6 -19 -15
-79 -21 -134 -5 -54 -16 -110 -23 -125 -7 -14 -16 -65 -20 -113 -3 -49 -12
-105 -20 -125 -8 -21 -17 -76 -21 -123 -3 -47 -12 -105 -20 -130 -7 -25 -16
-84 -19 -132 -3 -48 -10 -97 -16 -108 -6 -12 -16 -75 -21 -142 -5 -66 -16
-132 -23 -147 -7 -14 -16 -72 -20 -127 -3 -56 -13 -120 -21 -144 -8 -23 -15
-66 -15 -94 0 -28 -7 -76 -15 -106 -9 -30 -20 -100 -26 -155 -6 -55 -16 -109
-23 -120 -7 -11 -16 -66 -19 -121 -4 -56 -13 -119 -20 -140 -8 -22 -17 -74
-20 -117 -4 -43 -13 -102 -21 -130 -8 -29 -17 -87 -21 -131 -3 -43 -12 -88
-19 -100 -8 -12 -16 -64 -19 -121 -3 -58 -12 -117 -21 -139 -9 -21 -16 -64
-16 -95 0 -31 -7 -85 -15 -121 -8 -36 -20 -108 -26 -160 -6 -52 -16 -104 -23
-115 -7 -11 -16 -71 -20 -133 -3 -62 -13 -129 -20 -150 -8 -20 -17 -75 -20
-122 -3 -47 -11 -101 -17 -120 -5 -19 -14 -80 -19 -134 -5 -55 -16 -113 -23
-130 -8 -17 -17 -75 -20 -128 -4 -54 -13 -110 -20 -125 -8 -16 -17 -71 -21
-124 -3 -53 -13 -116 -20 -140 -8 -24 -17 -82 -20 -128 -3 -46 -11 -89 -17
-97 -6 -7 -15 -64 -20 -126 -5 -62 -14 -126 -19 -142 -15 -44 -12 -74 7 -84
28 -15 264 -23 324 -12 73 13 89 36 118 162 13 57 30 130 38 163 9 33 19 87
24 119 5 33 16 82 24 109 8 28 15 62 15 77 0 14 9 60 19 101 10 41 22 97 26
124 3 28 12 70 20 95 7 25 16 74 20 110 3 35 10 71 15 81 5 9 16 58 25 110 21
133 43 237 60 289 8 25 15 59 15 75 0 17 8 59 19 95 10 36 21 92 25 125 4 33
14 80 21 105 8 25 18 72 24 105 12 71 27 145 48 235 9 36 21 103 28 150 6 47
17 98 24 113 6 16 11 40 11 54 0 14 9 67 20 117 12 50 30 129 40 176 11 47 22
105 26 130 3 25 12 65 19 90 8 25 18 74 24 110 13 84 38 210 56 280 7 30 18
84 24 120 5 36 15 90 21 120 32 163 53 264 71 338 10 45 19 94 19 108 0 14 9
64 19 112 11 48 24 112 30 142 10 54 38 182 59 270 6 25 15 70 21 100 16 94
42 223 56 280 7 30 18 80 24 110 5 30 14 75 20 100 5 25 15 74 21 110 19 101
46 240 59 290 6 25 15 68 20 95 6 28 15 75 21 105 6 30 16 79 21 108 7 33 17
56 29 62 24 13 3299 14 3319 1 18 -12 8 -26 -95 -135 -98 -104 -122 -136 -166
-228 -32 -67 -42 -95 -68 -198 -18 -70 -31 -239 -24 -317 8 -93 1 -110 -53
-138 -150 -79 -207 -163 -208 -310 0 -170 115 -308 283 -339 63 -11 68 -15 89
-52 17 -29 23 -56 23 -104 1 -36 8 -83 16 -105 8 -22 18 -86 23 -141 5 -59 15
-111 24 -125 9 -14 18 -63 22 -119 4 -52 11 -100 17 -107 5 -6 13 -51 18 -100
5 -48 16 -110 25 -137 8 -27 15 -76 15 -108 0 -36 7 -75 19 -101 10 -23 21
-77 25 -120 3 -43 13 -91 21 -107 8 -16 15 -46 15 -67 0 -21 7 -63 15 -93 9
-30 20 -90 25 -133 5 -43 14 -85 21 -93 6 -8 16 -57 20 -108 5 -52 16 -107 24
-122 8 -16 15 -48 15 -71 0 -22 9 -70 20 -105 11 -34 20 -82 20 -106 0 -24 9
-64 19 -90 11 -26 22 -75 24 -108 3 -34 12 -72 20 -85 8 -13 17 -49 21 -80 3
-31 13 -72 21 -92 8 -20 15 -56 15 -79 0 -24 9 -63 20 -87 11 -24 20 -62 20
-85 0 -22 5 -60 10 -84 8 -34 7 -47 -6 -67 -9 -14 -23 -25 -30 -25 -8 0 -31
-9 -51 -20 -21 -11 -47 -20 -58 -20 -12 0 -59 -16 -105 -36 -47 -20 -98 -39
-115 -44 -41 -10 -113 -38 -155 -60 -19 -10 -51 -20 -71 -24 -21 -4 -42 -13
-49 -21 -7 -8 -17 -15 -22 -15 -5 0 -30 -21 -56 -47 -43 -44 -46 -52 -59 -133
-7 -47 -16 -111 -20 -143 -6 -55 -9 -60 -65 -110 -85 -76 -108 -125 -108 -233
0 -74 4 -95 26 -138 73 -142 261 -198 403 -120 60 32 92 66 128 137 22 44 24
60 21 126 -4 66 -9 84 -42 141 -22 36 -48 75 -59 88 -19 20 -20 27 -9 82 12
68 30 110 52 120 8 4 85 27 170 50 85 23 180 50 210 60 30 10 91 29 135 44 44
14 98 27 120 29 37 2 40 0 43 -25 3 -24 -29 -94 -63 -136 -21 -26 -156 -160
-244 -241 -76 -70 -97 -95 -126 -158 -31 -65 -36 -86 -40 -169 -3 -86 -2 -96
18 -120 37 -42 108 -55 337 -61 380 -9 660 31 900 129 89 36 107 50 131 103
23 49 24 104 4 215 -8 47 -15 101 -15 120 0 20 -7 60 -15 90 -8 30 -20 82 -26
115 -5 32 -14 64 -19 70 -4 5 -11 28 -15 50 -4 22 -14 51 -22 64 -18 28 -28
140 -15 159 5 8 29 18 53 23 24 5 67 15 94 23 28 8 79 22 115 31 36 9 108 30
160 46 52 16 103 29 112 29 24 0 34 -24 42 -100 4 -36 13 -101 21 -145 10 -63
21 -374 16 -467 -1 -10 -16 -32 -35 -49 -60 -54 -83 -98 -90 -169 -7 -73 6
-172 26 -196 80 -98 143 -129 258 -129 70 0 94 5 133 25 95 48 157 150 157
259 0 67 -36 158 -82 204 -61 62 -62 66 -49 201 12 136 28 315 41 453 4 50 11
97 15 102 10 17 49 13 118 -10 34 -12 112 -34 174 -49 61 -16 120 -33 130 -39
11 -5 44 -13 74 -17 30 -3 62 -13 72 -22 23 -20 23 -102 -2 -156 -35 -79 -53
-141 -61 -213 -5 -40 -15 -94 -23 -120 -9 -27 -17 -85 -20 -129 -3 -45 -10
-91 -16 -102 -16 -30 -14 -133 4 -175 18 -43 52 -68 122 -91 29 -10 55 -22 58
-27 4 -5 15 -9 25 -9 11 0 48 -9 82 -19 217 -66 641 -99 906 -71 169 18 195
41 193 177 -2 161 -49 237 -251 408 -85 71 -170 168 -199 225 -33 64 -37 85
-21 95 9 6 186 -38 275 -67 73 -24 343 -101 368 -106 43 -7 57 -38 60 -135 2
-74 -1 -88 -19 -109 -58 -64 -68 -96 -69 -208 0 -95 2 -109 25 -145 75 -121
199 -167 343 -126 62 18 147 97 177 166 55 128 28 232 -91 353 -68 69 -71 74
-66 109 3 21 2 72 -2 113 -8 78 -31 125 -87 176 -27 26 -96 64 -115 64 -6 0
-30 9 -53 19 -74 35 -144 61 -162 61 -9 0 -35 9 -58 19 -75 35 -145 61 -163
61 -27 0 -115 44 -137 69 -19 21 -19 23 -3 75 9 29 17 64 17 78 0 14 6 41 14
59 7 19 17 56 20 82 4 26 13 62 21 80 7 18 16 62 20 97 3 36 12 83 20 105 7
22 16 60 20 85 4 25 13 68 20 95 27 98 48 191 57 255 5 36 16 90 24 120 8 30
18 84 24 120 14 98 29 177 50 260 10 41 21 104 25 140 4 36 13 79 20 95 7 17
15 57 19 90 4 33 14 83 21 110 21 77 46 211 56 305 6 47 16 106 24 133 8 26
17 75 21 110 3 34 12 87 19 117 8 30 17 82 21 115 4 33 11 71 16 85 6 14 14
72 19 128 8 94 31 195 48 215 4 4 34 14 66 22 120 32 210 101 257 200 52 110
32 274 -44 360 -16 19 -60 55 -99 80 -38 25 -69 51 -69 58 -1 6 -1 83 0 169 1
113 -3 166 -13 190 -8 18 -17 51 -21 73 -22 126 -110 295 -195 374 -167 157
-165 155 -140 162 13 4 758 7 1655 8 1294 1 1634 -2 1642 -11 19 -23 50 -132
58 -198 3 -36 12 -76 19 -90 7 -14 15 -55 19 -91 3 -37 13 -80 21 -96 8 -17
18 -66 21 -109 4 -43 12 -90 19 -104 7 -14 16 -54 20 -89 4 -35 13 -78 20 -95
7 -17 15 -64 19 -104 3 -40 13 -83 20 -95 8 -12 18 -62 22 -112 4 -49 13 -99
19 -110 7 -11 16 -49 20 -85 3 -35 12 -78 20 -95 7 -18 16 -65 20 -106 4 -41
13 -85 20 -99 7 -14 16 -63 20 -110 4 -46 13 -94 20 -105 8 -11 17 -51 21 -90
4 -38 12 -86 19 -105 7 -20 16 -65 20 -100 4 -36 13 -76 20 -90 7 -14 16 -63
20 -110 4 -46 13 -94 21 -105 7 -11 16 -49 20 -85 3 -36 12 -79 19 -95 7 -17
16 -62 20 -100 4 -38 13 -78 20 -89 7 -12 15 -56 18 -99 3 -48 11 -85 20 -95
8 -10 18 -50 22 -92 4 -41 13 -93 20 -115 8 -22 17 -67 21 -100 3 -33 12 -71
19 -85 7 -14 15 -66 18 -117 3 -50 12 -104 20 -120 8 -15 18 -59 22 -98 4 -38
13 -83 20 -100 8 -16 17 -54 20 -84 4 -30 13 -68 20 -85 7 -17 15 -66 19 -109
3 -43 12 -90 20 -105 7 -15 17 -60 21 -101 4 -40 13 -85 21 -100 8 -14 14 -40
14 -56 0 -17 7 -55 15 -85 9 -30 20 -91 26 -135 6 -44 17 -91 24 -105 7 -14
16 -56 20 -95 4 -38 13 -82 21 -97 8 -15 14 -43 14 -63 0 -20 8 -61 19 -93 10
-31 21 -83 25 -115 3 -31 13 -74 20 -95 8 -20 17 -70 21 -111 4 -41 12 -83 20
-95 7 -12 16 -50 19 -86 4 -36 13 -85 21 -110 7 -25 16 -69 20 -99 3 -30 13
-63 21 -75 8 -11 14 -29 14 -39 0 -35 57 -47 212 -46 79 1 157 4 173 8 l30 7
-2 94 c-1 52 -9 124 -17 160 -8 36 -17 94 -21 130 -3 36 -12 87 -20 114 -8 27
-15 69 -15 94 0 24 -6 70 -14 101 -8 31 -20 100 -25 153 -6 53 -18 125 -26
160 -8 35 -15 84 -15 110 0 26 -9 85 -19 130 -24 102 -50 263 -62 383 -5 50
-14 104 -20 120 -5 17 -12 66 -15 110 -3 44 -12 100 -20 125 -7 25 -21 97 -29
160 -8 63 -20 133 -25 155 -5 22 -10 60 -10 85 0 25 -9 81 -20 125 -11 44 -20
105 -20 136 0 31 -7 76 -15 100 -9 24 -20 85 -25 136 -5 51 -15 114 -20 139
-6 26 -15 91 -20 146 -5 54 -14 107 -20 118 -6 10 -13 54 -16 97 -3 43 -14
107 -24 143 -10 36 -21 99 -24 141 -3 42 -10 89 -16 105 -6 15 -13 64 -17 108
-3 45 -14 114 -24 155 -11 41 -19 96 -19 121 0 25 -8 80 -19 121 -10 41 -21
108 -25 150 -3 42 -10 88 -15 102 -6 14 -15 72 -21 127 -5 56 -12 106 -15 111
-3 5 -12 59 -20 121 -8 62 -21 140 -29 173 -9 32 -16 82 -16 110 0 28 -7 76
-15 107 -8 31 -19 96 -25 144 -6 49 -15 103 -20 119 -5 17 -14 73 -19 125 -5
52 -14 108 -20 123 -13 34 -35 257 -26 266 4 3 223 8 488 11 354 4 490 9 510
18 50 22 113 80 140 131 37 68 38 170 2 240 -27 55 -72 103 -119 129 -29 16
-171 17 -2271 17 -1619 0 -2247 3 -2265 11 l-25 11 36 16 c20 8 47 18 60 22
44 14 176 82 234 121 124 82 261 243 314 370 48 115 71 298 52 419 -5 39 -15
104 -21 145 -7 41 -16 82 -21 92 -5 9 -15 48 -23 85 -8 37 -19 82 -25 98 -25
71 -61 202 -61 222 0 12 -4 24 -9 28 -5 3 -15 31 -21 63 -7 31 -18 67 -26 79
-7 12 -17 41 -20 65 -4 24 -13 52 -20 63 -8 11 -14 31 -14 45 0 14 -9 44 -20
68 -10 23 -22 59 -26 80 -4 20 -13 46 -20 57 -6 11 -15 36 -19 55 -3 19 -10
44 -15 55 -15 32 -50 136 -63 185 -7 25 -17 54 -23 65 -7 11 -15 36 -18 55 -4
19 -13 51 -21 70 -7 19 -25 76 -40 125 -14 50 -33 105 -41 123 -8 18 -14 38
-14 45 0 7 -7 26 -16 42 -30 56 -32 82 -18 202 14 107 13 124 -1 183 -28 113
-61 150 -186 213 -77 40 -84 46 -114 103 -18 34 -35 70 -38 80 -4 10 -11 26
-16 34 -5 8 -31 53 -57 100 -27 47 -55 93 -64 102 -8 9 -35 41 -60 71 -25 30
-57 63 -72 73 -14 10 -68 51 -120 89 -103 78 -96 73 -228 148 -87 50 -146 80
-330 165 -172 79 -145 69 -400 156 -69 23 -137 49 -151 57 -15 8 -50 46 -78
84 -56 75 -129 147 -173 171 -34 18 -36 37 -5 51 84 39 301 237 403 368 56 72
192 343 201 399 3 23 12 56 20 74 12 28 18 32 51 32 100 0 262 88 320 173 61
89 122 250 122 321 0 45 -39 174 -63 213 -27 42 -88 96 -122 107 -11 4 -30 15
-42 25 -24 20 -25 12 12 231 8 47 19 130 25 185 6 55 16 145 21 200 19 170 1
367 -43 483 -25 65 -21 109 21 220 30 80 31 90 31 230 -1 117 -4 158 -19 201
-30 87 -43 92 -250 107 -97 7 -201 17 -231 23 -30 5 -81 13 -113 16 -43 5 -66
14 -89 34 l-30 27 26 46 c31 56 33 87 7 120 -20 25 -38 32 -176 66 -163 41
-479 66 -640 52z m-596 -1281 c348 -88 438 -103 621 -103 173 0 181 1 480 95
258 80 347 77 425 -14 48 -56 63 -112 70 -274 8 -182 17 -224 72 -329 25 -49
59 -114 74 -144 45 -86 52 -167 46 -500 -5 -308 -12 -368 -65 -555 -69 -249
-176 -437 -339 -598 -172 -170 -354 -278 -570 -339 -109 -30 -345 -37 -461
-13 -450 91 -821 416 -965 845 -80 237 -91 331 -92 735 l0 331 31 59 c17 33
49 94 71 135 53 98 81 212 97 404 12 135 18 164 44 219 27 58 60 94 102 110
30 11 129 -6 359 -64z m2070 -1019 c65 -35 95 -75 122 -160 62 -201 -45 -448
-236 -540 -33 -16 -80 -30 -105 -32 -54 -4 -52 -21 -21 207 26 199 34 232 77
322 19 40 34 79 34 88 0 20 57 145 65 145 4 0 33 -14 64 -30z m-2962 -50 c12
-36 22 -75 22 -87 1 -13 5 -23 9 -23 10 0 45 -70 62 -123 14 -44 46 -224 62
-350 10 -75 9 -90 -3 -98 -34 -21 -155 25 -227 87 -91 78 -162 232 -162 353 0
72 37 200 69 238 31 37 94 74 121 71 21 -3 28 -13 47 -68z m1000 -1705 c20 -9
79 -28 132 -42 91 -26 108 -28 306 -27 126 0 224 4 245 11 154 49 213 64 225
59 24 -9 21 -180 -3 -228 -11 -20 -73 -101 -139 -180 -177 -212 -208 -262
-298 -488 -21 -52 -39 -96 -40 -98 -5 -6 -45 90 -45 107 0 9 -18 61 -40 116
-41 100 -83 167 -150 240 -107 115 -222 256 -246 298 -22 41 -26 60 -25 124 2
128 8 137 78 108z m1051 -12 c39 -24 110 -101 140 -152 58 -99 77 -228 51
-339 -27 -113 -60 -214 -99 -307 -23 -55 -46 -112 -52 -127 -5 -16 -14 -28
-20 -28 -5 0 -63 56 -129 124 -128 132 -194 176 -262 176 -20 0 -37 2 -37 5 0
13 190 251 219 275 3 3 27 30 52 60 71 86 79 108 79 227 0 113 4 119 58 86z
m-1196 -101 c3 -121 3 -119 118 -253 68 -78 152 -172 159 -179 19 -16 81 -100
81 -109 0 -6 -16 -11 -36 -11 -70 0 -138 -46 -262 -177 -64 -68 -121 -122
-127 -120 -30 10 -134 282 -173 455 -23 101 -25 119 -15 179 20 115 106 254
188 304 59 36 63 31 67 -89z m1627 -212 c368 -122 764 -316 926 -454 110 -93
205 -199 263 -291 49 -79 136 -265 128 -273 -11 -10 -2208 -15 -2276 -5 l-55
8 -3 104 c-3 125 19 222 78 344 52 107 98 157 142 157 49 0 133 -65 256 -197
57 -61 112 -113 122 -116 28 -7 60 20 82 72 10 25 26 59 33 76 8 16 35 92 60
169 56 174 79 298 70 389 -5 54 -3 67 8 67 8 0 82 -23 166 -50z m-1946 -30
c-4 -91 25 -228 82 -390 46 -129 116 -280 138 -299 26 -21 62 -5 104 47 74 92
185 206 231 237 46 32 108 34 145 5 23 -19 59 -83 112 -203 28 -64 45 -168 45
-279 l0 -107 -97 -4 c-181 -7 -2221 -2 -2229 6 -9 9 55 139 125 257 52 87 83
123 201 240 140 138 385 283 685 403 61 25 126 51 145 60 19 8 80 29 135 46
180 55 181 55 178 -19z m3412 -1076 c117 -63 154 -151 135 -323 -6 -58 -18
-182 -25 -276 -8 -93 -21 -233 -29 -310 -9 -77 -22 -228 -31 -335 -8 -107 -21
-263 -29 -345 -8 -83 -20 -229 -26 -325 -6 -96 -18 -245 -26 -330 -8 -85 -19
-220 -24 -300 -6 -80 -17 -201 -25 -270 -8 -69 -15 -144 -15 -167 0 -92 -49
-170 -128 -204 -42 -18 -111 -19 -2301 -19 -2511 0 -2318 -5 -2382 67 -61 71
-70 109 -104 488 -24 267 -35 368 -45 450 -5 44 -14 145 -20 225 -5 80 -18
246 -30 370 -37 409 -50 554 -60 655 -6 55 -15 156 -20 225 -5 69 -16 188 -25
265 -25 236 -19 316 28 386 26 39 92 86 127 91 14 2 1148 4 2520 3 l2495 0 40
-21z m270 -911 c42 -131 88 -267 101 -303 26 -73 106 -320 154 -480 18 -58 43
-136 56 -175 13 -38 32 -104 43 -145 10 -41 28 -109 39 -151 74 -280 100 -540
67 -667 -49 -192 -153 -340 -316 -452 -101 -70 -176 -101 -359 -150 -113 -30
-109 -32 -108 54 1 60 -3 81 -21 110 -13 20 -27 36 -32 36 -18 0 -9 37 15 59
45 42 66 148 81 401 12 204 26 385 31 403 5 15 18 17 99 17 52 0 96 4 99 9 12
19 -26 32 -109 38 l-88 6 7 61 c4 34 13 144 21 246 8 102 22 253 30 335 8 83
22 240 30 350 8 110 21 265 29 345 8 80 18 178 22 218 4 46 11 72 19 72 7 0
45 -102 90 -237z m-5504 16 c3 -35 15 -165 27 -289 12 -124 26 -277 31 -340 5
-63 21 -239 36 -390 14 -151 25 -300 23 -330 l-3 -55 -67 -9 c-101 -13 -81
-46 28 -46 63 0 64 -2 89 -325 27 -344 37 -399 86 -472 35 -51 35 -56 5 -80
-30 -24 -57 -110 -49 -157 7 -42 -5 -50 -54 -37 -21 6 -68 17 -104 26 -36 8
-93 29 -127 45 -34 17 -66 30 -71 30 -5 0 -11 4 -13 8 -1 5 -22 20 -45 33 -56
33 -110 84 -177 167 -90 111 -122 189 -156 373 -21 117 26 415 105 663 14 43
25 84 25 91 0 12 7 33 145 460 82 252 132 402 207 618 17 51 35 86 42 84 6 -2
14 -32 17 -68z m5045 -2379 c12 0 33 -11 48 -25 53 -49 22 -161 -56 -201 -29
-15 -218 -16 -2343 -15 l-2310 2 -35 24 c-20 14 -43 38 -53 54 -33 56 -15 141
33 159 13 5 3628 6 4716 2z m4840 -326 c46 -22 89 -76 104 -130 25 -88 -11
-180 -93 -239 l-42 -30 -7178 -3 c-6455 -2 -7181 0 -7208 13 -129 67 -158 227
-61 334 20 24 55 48 77 56 34 12 1083 14 7203 15 6603 0 7167 -1 7198 -16z
m-12749 -506 c-2 -18 -12 -67 -22 -108 -9 -41 -22 -106 -30 -145 -11 -59 -140
-699 -204 -1015 -22 -106 -67 -330 -86 -430 -16 -86 -65 -324 -110 -535 -20
-93 -44 -215 -54 -270 -22 -117 -51 -266 -91 -460 -16 -77 -33 -162 -39 -190
-5 -27 -23 -115 -40 -195 -35 -162 -65 -308 -80 -390 -6 -30 -19 -98 -30 -150
-10 -52 -33 -169 -50 -260 -18 -91 -36 -183 -41 -205 -5 -22 -14 -65 -20 -95
-7 -30 -25 -118 -42 -195 -16 -77 -34 -162 -39 -190 -5 -27 -14 -68 -19 -90
-5 -22 -19 -92 -30 -155 -12 -63 -31 -160 -42 -215 -11 -55 -26 -129 -33 -165
-33 -166 -58 -284 -85 -393 -17 -65 -30 -120 -30 -122 0 -13 -92 -25 -193 -25
-101 0 -119 2 -124 17 -6 16 0 80 32 303 17 118 56 375 80 525 9 55 20 127 25
160 5 33 19 114 30 180 12 66 25 149 31 185 5 36 20 133 34 215 21 132 42 264
75 485 5 36 23 148 40 250 16 102 36 237 45 300 8 63 18 122 20 130 3 8 11 60
19 115 8 55 24 152 34 215 11 63 23 140 27 170 4 30 16 109 27 175 11 66 26
161 33 210 8 50 21 135 30 190 9 55 23 143 31 195 8 52 21 131 29 175 8 44 19
112 25 150 5 39 18 124 29 190 11 66 25 156 31 200 6 44 17 121 25 170 8 50
22 135 30 190 8 55 21 143 30 195 9 52 22 138 30 191 8 53 24 135 35 182 10
47 29 145 40 217 11 72 22 136 25 141 4 5 132 9 302 9 l295 0 -5 -32z m11674
5 c5 -15 17 -74 24 -132 8 -59 22 -135 30 -171 8 -36 21 -105 29 -155 8 -49
26 -162 40 -250 14 -88 30 -189 36 -225 5 -36 16 -108 24 -160 8 -52 22 -147
31 -210 8 -63 22 -153 30 -200 8 -47 24 -143 36 -215 12 -71 28 -166 35 -210
17 -96 40 -237 59 -360 7 -49 21 -135 29 -190 9 -55 21 -136 26 -180 10 -76
39 -259 94 -600 26 -161 78 -497 102 -660 8 -55 19 -122 24 -150 5 -27 12 -75
15 -105 4 -30 16 -104 26 -165 11 -60 26 -150 34 -200 7 -49 25 -160 39 -245
14 -85 39 -243 56 -350 35 -224 46 -292 65 -410 8 -47 21 -139 30 -205 9 -66
21 -144 27 -174 14 -77 7 -81 -158 -81 -111 0 -135 3 -153 18 -19 16 -48 132
-96 397 -7 39 -29 149 -50 245 -20 96 -50 243 -67 325 -16 83 -36 177 -43 210
-40 185 -109 510 -120 570 -7 39 -22 115 -33 170 -11 55 -35 174 -52 265 -18
91 -41 208 -52 260 -11 52 -26 127 -34 165 -7 39 -20 102 -28 140 -9 39 -21
95 -27 125 -5 30 -21 107 -34 170 -13 63 -42 210 -64 325 -23 116 -48 239 -56
275 -8 36 -22 101 -31 145 -8 44 -22 109 -29 145 -8 36 -23 112 -34 170 -12
58 -37 182 -56 275 -20 94 -42 204 -50 245 -18 100 -62 324 -74 380 -6 25 -17
86 -26 135 -9 50 -27 142 -40 205 -23 108 -60 293 -90 455 -7 39 -20 99 -28
135 -9 35 -13 68 -11 72 3 5 136 8 295 8 l289 0 11 -27z m-3546 -1057 c27 -19
62 -56 79 -83 28 -44 31 -55 31 -133 0 -79 -3 -89 -34 -140 -48 -79 -127 -140
-181 -140 -20 0 -21 4 -15 58 4 31 11 82 16 112 6 40 39 335 39 358 0 9 23 -3
65 -32z m-5086 -8 c6 -18 14 -109 17 -203 3 -93 11 -190 18 -215 18 -66 15
-76 -19 -72 -17 2 -31 8 -33 13 -2 5 -10 9 -18 9 -24 0 -123 103 -144 152 -50
114 -12 243 93 313 28 19 57 35 63 35 7 0 17 -14 23 -32z m2816 -20 c43 -23
264 -113 435 -179 105 -41 102 -37 95 -142 -3 -51 -8 -106 -11 -124 l-5 -31
-809 1 c-585 2 -812 5 -820 13 -16 16 -37 211 -24 231 5 8 39 27 74 40 250 97
254 98 415 173 l110 50 245 -3 c241 -3 246 -4 295 -29z m-1018 -584 c9 -15 19
-53 21 -87 3 -41 12 -71 29 -96 76 -115 111 -132 286 -140 119 -6 131 -9 148
-30 18 -23 19 -52 17 -810 l-3 -786 -33 -17 c-19 -9 -44 -31 -58 -49 l-24 -33
0 -326 c0 -342 -1 -351 -45 -363 -11 -3 -51 -18 -90 -33 -38 -14 -96 -33 -129
-42 -56 -15 -59 -14 -72 3 -10 13 -14 53 -14 129 -1 61 -5 156 -10 211 -5 55
-16 233 -25 395 -8 162 -17 311 -20 330 -3 19 -10 161 -16 315 -5 154 -14 303
-19 330 -5 28 -14 156 -19 285 -6 129 -17 282 -25 340 -16 117 -31 456 -20
483 5 13 18 17 55 17 41 0 51 -4 66 -26z m1537 -274 c0 -212 -5 -330 -17 -420
-8 -69 -18 -199 -21 -290 -2 -91 -10 -178 -16 -195 -7 -18 -15 -148 -21 -330
-6 -219 -13 -313 -24 -349 -12 -38 -15 -103 -15 -290 -1 -277 -15 -579 -30
-635 -15 -58 -30 -59 -150 -10 -25 10 -56 21 -70 24 -40 10 -103 37 -122 53
-17 14 -18 43 -18 343 l0 328 -35 33 c-19 18 -46 43 -60 55 l-25 22 0 789 c0
689 2 791 15 802 9 8 56 13 124 15 61 2 125 6 143 10 70 15 138 70 177 144 7
13 22 60 32 103 11 44 22 85 25 90 3 5 29 8 57 6 l52 -3 -1 -295z m-249 276
c57 -5 60 -6 58 -31 -4 -56 -35 -136 -65 -170 -60 -69 -65 -70 -338 -67 -135
2 -351 4 -480 5 -200 2 -239 5 -265 19 -72 41 -113 99 -122 176 -4 36 -2 52 8
58 8 5 73 11 144 14 164 6 980 3 1060 -4z m-444 -373 c10 -28 10 -1237 -1
-1468 l-5 -110 -135 0 -135 0 -3 770 c-1 424 0 785 3 803 l6 32 130 0 129 0
11 -27z m92 -1652 c14 -5 27 -20 30 -33 3 -13 9 -172 13 -355 7 -323 7 -331
28 -341 24 -12 109 -43 211 -77 111 -37 145 -54 146 -73 1 -9 1 -44 0 -77 -1
-61 12 -91 49 -108 8 -4 24 -12 35 -19 11 -6 27 -14 35 -18 19 -9 26 -60 8
-71 -7 -5 -22 -2 -35 6 -12 8 -39 19 -60 24 -21 5 -65 17 -98 26 -33 10 -85
23 -115 31 -30 7 -71 17 -90 23 -19 5 -62 17 -95 26 -94 26 -95 27 -95 95 0
48 -4 61 -19 70 -29 15 -30 14 -24 -31 3 -22 1 -93 -6 -157 -17 -175 -51 -570
-53 -627 l-3 -50 -96 -3 -96 -3 -6 123 c-11 214 -27 430 -37 506 -6 40 -10
113 -10 162 0 49 -4 91 -9 95 -6 3 -19 -5 -30 -17 -16 -16 -21 -35 -21 -75 0
-51 -2 -54 -32 -67 -18 -8 -60 -21 -93 -30 -33 -9 -118 -32 -190 -52 -226 -63
-229 -63 -242 -52 -25 20 -13 38 52 79 70 44 69 42 65 141 -2 77 -2 77 125
118 39 12 75 26 80 30 6 4 40 18 77 30 37 12 73 29 80 38 9 11 14 102 16 345
4 329 4 330 27 353 23 23 27 23 239 24 118 0 226 -4 239 -9z m-1313 -321 c0
-5 -5 -10 -11 -10 -5 0 -7 5 -4 10 3 6 8 10 11 10 2 0 4 -4 4 -10z m-28 -24
c8 -7 23 -16 35 -20 18 -6 21 -4 16 15 -4 16 -2 20 8 17 9 -3 13 -16 11 -35
-2 -24 1 -31 14 -29 10 0 18 -8 20 -23 3 -17 0 -22 -10 -18 -8 3 -16 -2 -19
-13 -3 -12 1 -20 11 -22 14 -3 13 -5 -2 -20 -25 -25 -37 -22 -30 7 4 15 2 25
-5 25 -6 0 -11 -13 -11 -30 0 -24 -3 -28 -17 -23 -16 6 -16 5 -4 -11 8 -9 24
-16 35 -14 22 3 26 -2 26 -30 0 -12 -16 -23 -50 -35 -60 -21 -116 -15 -123 14
-5 20 7 26 18 9 12 -20 26 -10 15 10 -9 16 -7 24 5 36 8 8 15 20 15 25 0 5 8
9 18 10 10 0 12 3 5 6 -9 3 -11 14 -6 31 6 24 5 26 -10 13 -18 -14 -22 -7 -18
27 2 10 -4 12 -18 7 -24 -7 -29 10 -5 19 21 8 20 8 39 -10 9 -9 19 -13 23 -9
4 3 -1 11 -11 16 -9 6 -17 16 -17 24 0 7 -6 16 -12 18 -10 4 -9 8 2 16 20 14
36 14 52 -3z m2278 -17 c0 -11 5 -19 11 -19 6 0 9 -9 6 -19 -3 -12 1 -22 9
-25 8 -3 14 -11 14 -17 0 -8 -7 -6 -18 4 -19 17 -43 23 -41 10 4 -27 -1 -35
-16 -23 -20 17 -19 27 5 33 20 5 28 27 10 27 -5 0 -7 6 -4 14 3 8 1 17 -5 21
-18 11 -12 23 9 18 11 -3 20 -14 20 -24z m-41 -38 c2 -1 -4 -10 -14 -21 -10
-11 -15 -23 -12 -27 8 -7 -11 -33 -23 -33 -5 0 -15 13 -23 28 -11 24 -11 30 0
41 11 10 17 10 30 -1 14 -11 16 -11 11 4 -5 11 -2 15 10 13 9 -2 19 -4 21 -4z
m101 -11 c0 -5 -4 -10 -10 -10 -5 0 -10 5 -10 10 0 6 5 10 10 10 6 0 10 -4 10
-10z m0 -50 c0 -5 -5 -10 -11 -10 -5 0 -7 5 -4 10 3 6 8 10 11 10 2 0 4 -4 4
-10z m-2403 -47 c-9 -9 -20 -13 -24 -9 -4 4 -1 11 6 16 9 5 11 15 7 26 -7 18
-6 18 11 2 16 -17 16 -19 0 -35z m-327 17 c0 -5 -4 -10 -10 -10 -5 0 -10 5
-10 10 0 6 5 10 10 10 6 0 10 -4 10 -10z m2601 -19 c-9 -16 -8 -22 6 -30 10
-5 15 -12 11 -16 -3 -3 -17 5 -31 19 -18 18 -22 26 -11 26 8 0 17 7 21 15 3 9
8 14 10 11 3 -2 0 -13 -6 -25z m54 -11 c3 -6 -1 -7 -9 -4 -18 7 -21 14 -7 14
6 0 13 -4 16 -10z m428 -15 c-3 -9 -8 -14 -10 -11 -3 3 -2 9 2 15 9 16 15 13
8 -4z m-366 -21 c-3 -3 -12 -4 -19 -1 -8 3 -5 6 6 6 11 1 17 -2 13 -5z m-2635
-36 c-7 -7 -12 -8 -12 -2 0 14 12 26 19 19 2 -3 -1 -11 -7 -17z m3058 -8 c12
-8 11 -10 -7 -10 -13 0 -23 5 -23 10 0 13 11 13 30 0z m-540 -10 c0 -5 -4 -10
-10 -10 -5 0 -10 5 -10 10 0 6 5 10 10 10 6 0 10 -4 10 -10z m287 4 c-3 -3
-12 -4 -19 -1 -8 3 -5 6 6 6 11 1 17 -2 13 -5z m-2457 -29 c7 -8 16 -15 21
-15 5 0 6 7 3 15 -4 9 0 15 10 15 13 0 14 -5 5 -27 -7 -20 -7 -28 3 -34 10 -6
10 -11 1 -20 -6 -6 -9 -18 -6 -25 8 -22 -6 -64 -22 -64 -8 0 -15 -6 -15 -14 0
-8 -8 -16 -17 -18 -15 -3 -15 -6 5 -24 22 -20 22 -21 3 -38 -11 -10 -17 -24
-14 -32 3 -8 -2 -17 -11 -20 -9 -3 -16 -12 -16 -20 0 -8 -4 -14 -10 -14 -5 0
-10 -7 -10 -15 0 -9 -10 -19 -22 -24 -13 -5 -22 -12 -22 -17 1 -5 -6 -18 -15
-29 -12 -16 -29 -21 -76 -23 -43 -1 -64 -7 -72 -19 -11 -14 -31 -16 -130 -15
-64 1 -121 6 -126 11 -5 5 -16 7 -23 4 -8 -3 -14 0 -14 6 0 6 -7 8 -15 5 -8
-4 -15 -2 -15 3 0 4 -11 20 -25 35 -22 24 -24 33 -20 88 6 71 9 80 35 80 19 0
56 42 80 90 10 21 10 23 -1 13 -7 -7 -20 -13 -28 -12 -14 0 -14 1 -1 6 24 10
40 30 40 52 0 20 62 60 68 43 4 -14 53 -1 59 15 4 10 9 11 19 2 10 -8 14 -8
14 -1 0 6 -10 16 -21 23 -15 8 -19 8 -15 0 5 -7 -3 -11 -19 -11 -24 0 -25 2
-11 15 17 17 52 20 61 5 3 -5 21 -10 38 -10 l32 -1 -30 -14 c-27 -12 -28 -13
-7 -14 14 -1 21 -5 17 -12 -4 -6 3 -5 15 3 19 11 23 11 27 0 8 -21 55 -35 64
-20 4 7 11 9 15 5 4 -3 1 -13 -5 -21 -23 -28 37 -5 88 33 32 24 34 25 47 6 10
-14 14 -15 14 -4 0 9 3 10 8 3 5 -9 11 -8 21 3 11 12 11 14 0 12 -34 -4 -42 0
-29 16 7 8 9 15 4 15 -10 0 17 20 27 20 4 0 12 -7 19 -15z m2300 -8 c0 -7 -9
-23 -21 -36 -12 -12 -18 -25 -14 -29 3 -3 9 -2 13 4 10 17 45 25 61 15 7 -5
10 -14 6 -21 -6 -9 -3 -9 13 -1 12 6 24 16 27 21 3 6 15 10 26 10 10 0 18 3
18 8 -4 22 3 30 21 25 15 -4 18 -9 10 -18 -5 -6 -7 -15 -3 -18 11 -12 23 -8
23 8 0 8 8 18 18 23 20 11 62 -2 62 -18 0 -17 43 -7 47 10 4 12 3 12 -5 1 -7
-10 -11 -10 -17 -1 -10 15 16 33 29 20 6 -6 18 -10 28 -10 11 0 15 -5 12 -15
-4 -11 1 -15 17 -16 31 -2 41 -4 61 -13 15 -7 32 -41 29 -59 -2 -10 25 -37 37
-37 5 0 14 -18 21 -41 9 -31 10 -44 0 -55 -9 -11 -9 -14 1 -14 14 0 9 -24 -21
-105 -11 -30 -25 -55 -31 -55 -5 0 -8 7 -4 15 5 13 3 13 -18 0 -13 -9 -30 -13
-38 -10 -8 3 -21 -1 -28 -10 -11 -13 -15 -13 -22 -3 -6 10 -10 10 -18 -2 -6
-9 -10 -11 -10 -3 0 7 -9 17 -20 23 -11 6 -20 7 -19 3 4 -24 -4 -33 -31 -33
-18 0 -33 6 -36 15 -4 8 -10 12 -15 9 -5 -3 -7 -10 -4 -15 4 -5 1 -9 -4 -9
-15 0 -14 37 2 43 6 3 1 6 -12 6 -20 1 -22 -3 -17 -24 4 -14 2 -25 -4 -25 -5
0 -10 9 -10 20 0 12 -7 20 -17 20 -12 1 -7 6 12 15 l30 13 -26 1 c-15 1 -37
-8 -50 -18 l-24 -19 28 -7 c27 -7 38 -25 15 -25 -24 0 -98 42 -98 56 0 8 -4
14 -10 14 -5 0 -10 5 -10 11 0 5 5 7 12 3 8 -5 9 0 6 14 -4 12 -2 22 3 22 5 0
9 7 9 16 0 14 -3 14 -15 4 -12 -10 -15 -10 -15 4 0 9 7 16 15 16 19 0 19 20
-1 48 -9 13 -13 26 -10 29 3 4 6 0 6 -7 0 -10 3 -11 11 -3 13 13 3 73 -12 73
-6 0 -8 4 -5 9 10 16 -28 23 -39 8 -9 -13 -14 -13 -29 -2 -10 8 -15 19 -11 25
4 6 2 17 -4 24 -9 10 -8 15 3 19 9 4 13 14 9 29 -4 19 -3 20 6 8 10 -13 14
-12 29 7 20 26 22 27 22 10z m75 -17 c3 -5 -3 -10 -14 -10 -12 0 -21 5 -21 10
0 6 6 10 14 10 8 0 18 -4 21 -10z m-198 -6 c-3 -3 -12 -4 -19 -1 -8 3 -5 6 6
6 11 1 17 -2 13 -5z m33 -58 c0 -11 -19 -15 -25 -6 -3 5 1 10 9 10 9 0 16 -2
16 -4z m-229 -406 c10 -6 38 -14 61 -19 24 -5 88 -18 143 -30 55 -11 158 -23
230 -27 71 -4 136 -11 143 -17 18 -14 16 -126 -3 -133 -8 -3 -54 -1 -103 6
-67 8 -105 9 -152 0 -67 -12 -85 -20 -141 -62 -22 -17 -50 -28 -68 -28 -43 0
-158 60 -165 85 -9 31 -6 116 5 165 17 77 17 77 50 60z m-1756 -52 c8 -28 15
-80 15 -114 0 -58 -2 -64 -29 -83 -43 -31 -112 -61 -141 -61 -25 0 -37 5 -123
53 -59 33 -156 46 -268 35 -45 -4 -84 -6 -86 -4 -10 9 -13 112 -4 125 7 11 46
17 143 23 127 8 275 32 383 62 87 25 92 23 110 -36z m-832 -8 c31 -11 67 -20
80 -20 37 0 47 -19 47 -86 0 -69 -15 -94 -54 -94 -13 0 -92 -18 -177 -39 -85
-22 -183 -47 -219 -56 -113 -29 -250 -77 -275 -97 -14 -10 -29 -38 -35 -61 -6
-23 -16 -55 -22 -70 l-11 -28 -91 7 c-50 3 -93 8 -95 10 -2 2 0 51 6 109 9 94
13 109 40 143 37 46 120 89 288 148 127 44 266 97 355 134 58 25 92 25 163 0z
m3622 -46 c99 -36 189 -70 200 -74 11 -4 49 -18 85 -30 236 -81 294 -143 288
-306 l-3 -79 -87 -3 c-96 -3 -100 -1 -113 69 -16 86 -76 115 -405 199 -69 17
-147 38 -175 45 -27 8 -76 20 -108 27 -65 14 -70 22 -70 106 0 60 6 67 67 76
23 4 59 13 81 21 22 8 45 14 50 15 6 0 91 -29 190 -66z m-3158 -209 c34 -9 70
-25 80 -34 57 -51 144 -54 233 -8 68 35 97 35 111 0 24 -62 81 -375 77 -423
-3 -30 -9 -38 -43 -54 -22 -10 -62 -25 -90 -33 -27 -8 -66 -19 -85 -25 -37
-10 -267 -62 -360 -81 -63 -12 -610 -16 -652 -4 -41 11 -46 46 -14 112 33 67
147 174 226 213 52 26 62 27 206 27 94 0 160 -4 175 -12 43 -20 118 -36 144
-29 48 12 22 60 -50 91 -75 32 -100 36 -219 36 -65 0 -123 2 -128 5 -5 3 -2
15 8 25 15 16 32 19 121 19 96 0 222 -21 248 -41 6 -4 27 -10 47 -14 35 -7 38
-5 44 21 4 15 3 34 -3 43 -29 49 -187 86 -313 75 -65 -6 -70 -5 -70 13 0 24
47 78 81 93 33 14 151 6 226 -15z m2678 -1 c31 -15 82 -80 72 -90 -3 -3 -68
-7 -144 -8 -120 -1 -144 -4 -188 -24 -62 -28 -81 -53 -63 -83 11 -17 20 -19
53 -14 22 3 63 8 90 10 45 4 65 8 115 23 8 2 48 6 88 9 56 4 78 2 97 -11 14
-9 25 -21 25 -26 0 -5 -62 -8 -147 -7 -136 2 -152 0 -194 -21 -63 -31 -97 -68
-82 -90 14 -22 48 -20 148 8 61 17 109 22 200 24 117 1 122 0 185 -31 189 -94
328 -301 222 -330 -45 -13 -590 -7 -657 7 -136 28 -202 41 -240 49 -53 11
-197 57 -265 85 l-55 23 1 49 c1 55 57 364 73 406 15 39 25 41 93 15 143 -56
166 -58 213 -22 45 33 99 54 170 63 78 10 152 5 190 -14z m-2149 -601 c10 -39
-14 -74 -71 -105 -67 -37 -211 -83 -356 -112 -292 -61 -794 -60 -860 0 -21 19
-27 90 -8 96 6 2 59 -2 118 -10 73 -9 184 -12 356 -9 223 4 263 7 370 31 116
25 334 94 385 122 39 21 59 17 66 -13z m1534 -23 c151 -53 244 -77 403 -105
84 -15 136 -17 370 -11 149 4 295 8 322 9 47 2 50 0 53 -24 5 -39 -31 -76 -86
-89 -26 -6 -135 -14 -242 -17 -252 -7 -401 9 -670 73 -145 34 -267 85 -297
124 -13 16 -16 49 -7 74 3 9 7 16 9 16 1 0 66 -22 145 -50z"/>
<path d="M10758 23835 c-72 -26 -138 -78 -138 -107 0 -27 43 -23 115 13 80 39
185 43 260 10 67 -29 85 -28 85 8 0 33 -21 50 -94 74 -59 20 -176 21 -228 2z"/>
<path d="M11972 23834 c-68 -18 -88 -29 -108 -59 -32 -49 9 -58 102 -24 76 29
176 23 256 -14 57 -27 82 -27 92 -1 16 41 -57 86 -166 104 -81 13 -111 12
-176 -6z"/>
<path d="M10849 23512 c-70 -35 -99 -152 -60 -238 23 -50 55 -74 99 -74 83 0
140 141 98 241 -29 68 -85 97 -137 71z"/>
<path d="M12009 23503 c-55 -47 -73 -126 -49 -215 13 -45 62 -88 99 -88 114 0
160 216 65 300 -43 37 -73 38 -115 3z"/>
<path d="M11399 23358 c0 -2 -1 -17 -2 -35 -2 -24 1 -29 11 -21 14 12 16 58 2
58 -5 0 -10 -1 -11 -2z"/>
<path d="M11378 23237 c-3 -19 -2 -25 4 -19 6 6 8 18 6 28 -3 14 -5 12 -10 -9z"/>
<path d="M11360 22940 c0 -17 87 -50 134 -50 64 0 50 16 -23 25 -32 4 -70 13
-85 20 -14 8 -26 10 -26 5z"/>
<path d="M11807 22570 c-45 -36 -130 -69 -207 -81 -109 -17 -307 -6 -394 21
-48 15 -72 18 -79 11 -17 -17 18 -47 76 -65 124 -39 267 -46 413 -21 133 23
264 92 264 139 0 23 -41 21 -73 -4z"/>
<path d="M12896 23398 c-17 -9 -17 -11 0 -29 13 -14 20 -16 31 -8 29 25 4 56
-31 37z"/>
<path d="M10295 12230 c3 -5 11 -10 16 -10 6 0 7 5 4 10 -3 6 -11 10 -16 10
-6 0 -7 -4 -4 -10z"/>
<path d="M10350 12150 c19 -13 30 -13 30 0 0 6 -10 10 -22 10 -19 0 -20 -2 -8
-10z"/>
<path d="M10297 12063 c-9 -9 -9 -43 1 -42 19 3 22 -3 11 -22 -9 -17 -8 -20 3
-17 7 3 14 14 16 26 4 24 -21 66 -31 55z"/>
<path d="M12504 12144 c3 -9 6 -18 6 -20 0 -3 5 -2 10 1 16 10 12 35 -6 35
-11 0 -14 -5 -10 -16z"/>
<path d="M10130 11570 c0 -14 25 -29 37 -22 7 5 3 11 -13 19 -13 6 -24 8 -24
3z"/>
<path d="M12720 11760 c0 -5 5 -10 10 -10 6 0 10 5 10 10 0 6 -4 10 -10 10 -5
0 -10 -4 -10 -10z"/>
<path d="M12720 11712 c0 -4 10 -9 22 -9 18 -2 20 0 8 7 -18 12 -30 13 -30 2z"/>
<path d="M12721 11634 c0 -11 3 -14 6 -6 3 7 2 16 -1 19 -3 4 -6 -2 -5 -13z"/>
<path d="M12897 11583 c-10 -9 -9 -23 1 -23 5 0 9 7 9 15 0 17 -1 18 -10 8z"/>
<path d="M12981 11582 c-1 -9 -8 -11 -21 -7 -24 8 -27 -10 -3 -19 20 -8 37 7
30 26 -4 10 -6 11 -6 0z"/>
<path d="M12705 11570 c3 -5 11 -10 16 -10 6 0 7 5 4 10 -3 6 -11 10 -16 10
-6 0 -7 -4 -4 -10z"/>
<path d="M12917 11526 c-4 -10 -1 -13 8 -9 8 3 12 9 9 14 -7 12 -11 11 -17 -5z"/>
<path d="M20082 24623 c-19 -7 -4 -23 22 -23 46 0 51 -21 48 -179 -3 -156 -8
-171 -57 -171 -45 0 -55 28 -55 146 0 126 -10 156 -34 101 -9 -22 -22 -37 -33
-38 -74 -3 -176 -30 -214 -55 -19 -13 -46 -39 -60 -57 l-24 -32 -3 -766 -2
-766 31 -39 c17 -21 50 -49 75 -62 l44 -22 873 2 c849 3 873 4 902 23 34 22
59 48 84 85 14 22 16 95 14 783 l-2 759 -23 36 c-12 20 -34 47 -48 58 -24 21
-137 52 -209 57 -38 2 -46 12 -61 76 -20 76 -84 114 -132 77 -15 -11 -54 -86
-71 -138 -5 -15 -44 -17 -444 -20 -241 -2 -448 -1 -461 1 -25 4 -32 17 -52 89
-14 56 -67 92 -108 75z m1215 -31 c13 -8 18 -87 15 -239 -2 -82 -4 -94 -23
-103 -28 -15 -75 4 -83 33 -10 38 -7 277 4 298 11 20 63 26 87 11z m232 -183
c38 -8 58 -20 85 -49 40 -45 49 -84 44 -210 l-3 -85 -972 -3 -972 -2 -12 22
c-8 14 -9 48 -5 102 9 113 20 147 60 185 30 29 43 34 99 38 36 3 77 3 91 -1
23 -6 26 -12 26 -49 0 -109 39 -157 126 -157 45 0 59 5 84 28 26 24 31 36 36
100 6 62 10 73 28 77 12 3 217 4 456 3 l435 -3 5 -65 c7 -81 18 -102 69 -124
50 -23 99 -15 135 21 22 22 26 34 26 85 0 82 10 98 65 98 24 0 67 -5 94 -11z
m121 -399 c13 -8 15 -86 15 -603 0 -567 -1 -594 -19 -623 -23 -34 -49 -54 -91
-71 -22 -8 -256 -12 -886 -12 -916 -1 -898 -2 -943 48 -40 44 -41 66 -39 671
2 467 5 585 15 591 19 12 1929 11 1948 -1z"/>
<path d="M7635 22803 c-11 -3 -24 -9 -30 -14 -10 -10 -9 -1386 1 -1421 5 -16
19 -18 103 -18 78 0 101 3 112 16 10 12 13 153 13 711 l1 695 -24 19 c-18 15
-38 19 -90 18 -36 -1 -75 -3 -86 -6z m156 -35 c7 -10 6 -748 -1 -1370 0 -5
-38 -8 -85 -8 l-85 0 0 701 0 702 81 -6 c52 -3 85 -10 90 -19z"/>
<path d="M17865 22449 c-33 -4 -99 -7 -147 -8 -53 -1 -88 -5 -88 -11 0 -7 137
-10 418 -10 229 0 423 0 430 0 6 0 12 -4 12 -10 0 -16 -153 -161 -270 -257
-19 -15 -42 -35 -51 -43 -30 -28 -102 -85 -125 -100 -21 -13 -26 -12 -48 5
-13 11 -52 43 -87 70 -64 51 -188 157 -244 208 -16 15 -52 45 -78 65 -33 25
-47 42 -43 54 9 35 -21 17 -42 -26 -21 -41 -22 -55 -22 -343 l0 -300 25 -27
24 -26 498 0 c435 0 501 2 521 16 22 15 22 15 22 350 0 385 6 362 -97 383 -68
13 -516 21 -608 10z m-294 -122 c19 -17 78 -70 130 -117 130 -117 141 -129
132 -145 -10 -16 -270 -267 -289 -278 -8 -4 -19 -5 -24 -2 -11 7 -14 557 -3
568 11 11 16 8 54 -26z m969 -250 c0 -150 -4 -278 -9 -286 -6 -9 -14 -10 -24
-5 -26 15 -277 255 -288 276 -9 16 -4 25 28 56 22 20 75 71 119 113 86 83 151
132 165 123 5 -3 9 -128 9 -277z m-345 -43 c11 -8 82 -76 158 -151 101 -99
135 -138 125 -144 -17 -11 -915 -12 -922 0 -10 15 298 301 324 301 10 0 40
-18 65 -40 67 -58 87 -57 159 6 56 48 62 50 91 28z"/>
<path d="M15905 22430 c-11 -4 -42 -29 -70 -55 -63 -60 -99 -75 -175 -75 -33
0 -60 -4 -60 -10 0 -6 123 -10 349 -10 312 0 350 -2 362 -17 10 -12 15 -61 17
-191 2 -97 1 -185 -2 -197 -5 -18 -124 -111 -240 -188 -10 -6 -37 -27 -60 -44
-22 -18 -52 -33 -65 -33 -20 0 -229 117 -257 145 -6 6 -36 28 -67 49 -30 21
-61 50 -67 65 -7 18 -9 91 -7 217 3 138 2 180 -5 154 -6 -19 -17 -59 -26 -89
-12 -45 -25 -65 -73 -111 l-59 -56 0 -351 c0 -394 -3 -377 74 -388 24 -4 258
-5 520 -3 l476 3 27 28 28 27 3 326 4 325 -28 40 c-14 21 -30 39 -34 39 -4 0
-28 20 -54 44 -46 45 -46 45 -46 114 0 95 -20 113 -128 121 -76 6 -80 8 -143
58 -90 71 -138 87 -194 63z m109 -41 c71 -64 65 -69 -69 -69 -63 0 -115 4
-115 9 0 16 99 101 119 101 10 0 40 -19 65 -41z m-486 -390 c1 -24 -2 -51 -8
-59 -8 -13 -12 -13 -36 0 -15 8 -32 23 -38 33 -9 16 -5 23 24 48 19 16 39 28
45 26 5 -2 11 -23 13 -48z m904 11 l33 -30 -24 -20 c-34 -29 -58 -26 -66 10
-7 32 1 70 16 70 5 0 23 -14 41 -30z m-918 -159 c45 -32 122 -86 172 -120 121
-81 128 -91 83 -117 -17 -9 -116 -96 -218 -191 -90 -83 -106 -94 -119 -81 -13
13 -18 568 -5 568 3 0 43 -26 87 -59z m971 27 c11 -61 1 -553 -11 -553 -10 0
-58 39 -159 130 -12 11 -44 39 -71 62 -81 68 -134 121 -134 132 0 5 44 40 98
78 53 37 102 72 108 78 6 5 20 16 30 23 11 7 41 28 68 47 27 19 53 35 57 35 5
0 11 -15 14 -32z m-570 -310 c18 -16 52 -8 96 22 24 16 47 30 50 30 8 0 65
-47 129 -106 30 -28 66 -60 79 -70 13 -10 46 -39 73 -63 27 -25 57 -51 68 -58
11 -8 20 -21 20 -29 0 -12 -66 -14 -462 -14 -273 0 -469 4 -478 10 -12 7 0 23
61 82 118 114 250 232 268 239 14 6 68 -18 96 -43z"/>
<path d="M6500 22421 l-55 -7 77 -4 c42 -3 80 -9 85 -14 8 -8 5 -997 -4 -1006
-6 -7 -153 -1 -164 6 -5 3 -9 222 -9 500 0 294 -4 494 -9 494 -12 0 -20 -998
-8 -1022 7 -16 22 -18 111 -18 72 0 107 4 114 13 7 8 12 178 13 507 3 557 3
554 -61 556 -19 1 -60 -2 -90 -5z"/>
<path d="M17085 22220 c-4 -6 33 -10 100 -10 59 0 104 4 101 9 -8 12 -194 13
-201 1z"/>
<path d="M7263 22183 c9 -2 23 -2 30 0 6 3 -1 5 -18 5 -16 0 -22 -2 -12 -5z"/>
<path d="M7398 22177 c9 -11 12 -106 10 -398 l-3 -384 -70 -3 c-38 -2 -80 0
-92 3 l-23 5 0 388 c-1 258 -4 381 -10 370 -7 -10 -9 -166 -8 -410 l3 -393
106 -3 c87 -2 110 0 123 13 14 15 16 59 15 378 -1 383 -6 438 -44 446 -16 3
-17 1 -7 -12z"/>
<path d="M6819 22129 c-20 -20 -21 -26 -16 -389 3 -203 8 -373 12 -379 8 -14
190 -14 216 -1 18 10 19 25 19 384 0 441 11 406 -123 406 -75 0 -90 -3 -108
-21z m165 -9 l26 -10 0 -355 0 -355 -23 -5 c-12 -3 -52 -5 -87 -3 l-65 3 1
160 c1 519 3 563 22 568 32 9 101 7 126 -3z"/>
<path d="M19245 22016 c-18 -14 3 -15 219 -16 273 0 264 2 341 -91 77 -94 44
-89 556 -89 l451 0 29 -30 c29 -28 30 -32 27 -107 -3 -69 -5 -78 -22 -78 -14
0 -22 10 -28 35 -14 57 -29 88 -44 94 -8 3 -330 6 -716 6 -785 1 -726 7 -747
-73 -5 -24 -10 -144 -11 -268 0 -125 -5 -251 -10 -280 -15 -80 -69 -224 -79
-213 -3 3 -6 56 -6 117 -1 418 -7 864 -12 889 l-6 30 -13 -23 c-11 -19 -13
-149 -14 -631 0 -599 0 -608 21 -651 12 -24 30 -49 41 -56 24 -15 1563 -25
1619 -10 29 7 39 17 56 56 34 77 78 203 108 308 8 28 26 84 40 125 14 41 32
98 39 125 7 28 17 59 23 70 6 11 21 66 33 122 23 102 23 103 4 138 -13 25 -25
35 -42 35 l-23 0 20 -26 c27 -34 26 -60 -3 -164 -26 -92 -101 -322 -116 -355
-5 -11 -14 -40 -20 -65 -12 -51 -42 -142 -77 -242 -35 -98 -45 -102 -212 -94
-75 4 -424 9 -776 11 -352 2 -648 7 -659 11 -33 13 -27 35 140 542 13 40 24
77 24 83 0 10 23 71 73 197 12 30 31 65 44 78 l22 24 718 0 718 1 -28 23 c-24
20 -28 30 -28 77 -1 76 -25 156 -52 174 -18 12 -103 15 -482 21 -351 4 -466 9
-485 19 -14 7 -42 37 -63 67 -70 96 -58 93 -332 96 -202 2 -243 1 -260 -12z
m1515 -336 c22 -22 27 -69 8 -88 -9 -9 -162 -12 -628 -12 -567 0 -617 -2 -637
-18 -22 -17 -76 -124 -110 -216 -10 -27 -23 -51 -29 -53 -19 -6 -24 35 -24
202 0 129 3 165 16 183 l15 22 685 0 c671 0 684 0 704 -20z"/>
<path d="M19200 21980 c0 -5 5 -10 10 -10 6 0 10 5 10 10 0 6 -4 10 -10 10 -5
0 -10 -4 -10 -10z"/>
<path d="M6026 21808 c-13 -19 -16 -58 -16 -230 0 -195 1 -208 19 -218 23 -12
200 -13 219 -1 11 6 14 54 13 227 -1 193 -3 220 -18 232 -11 7 -51 12 -109 12
-85 0 -94 -2 -108 -22z m194 -15 c7 -6 1 -383 -6 -394 -8 -14 -138 -11 -157 4
-16 11 -17 32 -15 202 l3 190 55 5 c53 6 109 2 120 -7z"/>
<path d="M17169 21201 c-27 -17 -61 -52 -83 -85 -20 -31 -45 -60 -54 -65 -9
-4 -59 -11 -110 -13 -124 -7 -159 -29 -186 -117 -14 -43 -25 -63 -40 -67 -12
-4 -136 -7 -276 -8 -172 -1 -264 -5 -281 -13 -15 -6 -43 -32 -64 -57 l-37 -46
0 -1304 c0 -1299 0 -1305 20 -1338 29 -47 62 -75 97 -82 17 -4 519 -8 1115 -9
831 -1 1094 1 1125 10 47 15 87 53 105 103 11 28 14 295 17 1299 4 1177 3
1268 -13 1322 -25 82 -51 99 -172 110 -54 4 -164 8 -247 9 -82 0 -174 3 -202
6 l-53 7 -16 59 c-26 90 -55 108 -175 109 -52 0 -103 4 -113 8 -11 4 -36 34
-56 67 -50 84 -114 124 -195 124 -49 0 -69 -6 -106 -29z m153 -13 c44 -13 105
-75 133 -136 10 -20 23 -40 29 -44 6 -4 61 -8 122 -8 103 0 113 -2 137 -24 32
-29 39 -66 35 -176 l-3 -85 -482 -3 c-298 -1 -491 2 -507 8 -25 9 -26 12 -26
95 0 65 5 95 19 124 32 61 43 66 160 68 58 1 112 2 119 2 7 1 22 20 32 44 57
127 125 167 232 135z m-614 -370 c7 -7 12 -38 12 -70 0 -54 2 -59 26 -68 41
-16 1013 -13 1044 3 21 11 26 21 30 69 3 31 9 60 13 65 5 4 131 8 281 8 l273
0 36 -28 c24 -18 40 -41 46 -65 12 -43 21 -2323 11 -2510 -6 -111 -7 -113 -38
-142 -18 -16 -49 -34 -70 -40 -26 -8 -366 -10 -1122 -8 -1218 3 -1129 -3
-1170 78 -20 39 -20 57 -20 1308 0 1140 2 1273 16 1316 17 50 44 74 97 86 56
14 521 12 535 -2z"/>
<path d="M2950 20579 c-25 -5 -83 -17 -130 -25 -47 -9 -94 -23 -105 -30 -11
-8 -28 -14 -38 -14 -23 0 -97 -43 -124 -72 -21 -23 -21 -29 -24 -760 l-4 -737
30 -31 c56 -59 177 -104 355 -131 128 -20 511 -17 620 5 151 30 266 79 306
132 l25 32 2 729 2 728 -23 29 c-34 44 -144 89 -307 128 -75 18 -128 22 -315
24 -124 1 -245 -2 -270 -7z m490 -28 c25 -5 87 -19 138 -31 89 -20 104 -25
182 -58 39 -16 80 -57 80 -80 0 -20 -53 -67 -103 -91 -23 -11 -87 -32 -142
-48 -99 -28 -102 -28 -400 -28 -303 0 -334 3 -460 42 -129 40 -188 83 -183
135 2 25 12 39 43 59 22 15 51 30 65 33 14 3 77 19 140 36 63 17 147 35 185
40 89 11 396 5 455 -9z m398 -390 c3 -153 -7 -186 -66 -218 -70 -39 -180 -72
-283 -85 -133 -17 -466 -17 -589 0 -122 17 -271 67 -319 108 l-36 32 -3 146
c-4 165 -5 163 71 125 56 -27 118 -49 141 -49 10 0 57 -10 105 -22 76 -20 112
-22 311 -23 195 0 242 3 350 24 113 21 260 69 285 92 23 23 30 -3 33 -130z
m-1198 -281 c65 -32 240 -68 370 -76 211 -12 502 1 585 26 17 5 50 14 75 20
25 7 64 21 87 31 47 21 59 23 68 9 7 -11 -13 -49 -35 -67 -47 -39 -128 -68
-290 -104 -114 -26 -462 -28 -590 -3 -215 40 -360 106 -360 163 0 36 19 36 90
1z m-36 -124 c61 -33 121 -51 246 -78 141 -29 518 -33 645 -6 44 10 105 22
135 28 30 6 86 26 125 45 38 19 74 30 78 26 5 -5 7 -74 5 -153 -2 -112 -6
-148 -18 -159 -93 -91 -322 -141 -635 -141 -204 1 -345 19 -472 63 -103 36
-149 69 -163 120 -17 57 -12 279 6 279 1 0 23 -11 48 -24z m1 -384 c47 -29
242 -83 335 -93 194 -20 294 -21 440 -5 144 17 347 66 385 92 51 36 81 2 42
-50 -41 -53 -150 -98 -305 -126 -93 -17 -518 -14 -617 4 -200 36 -325 100
-325 167 0 34 5 35 45 11z m1233 -270 l3 -151 -27 -26 c-80 -80 -310 -128
-619 -128 -272 0 -428 27 -582 100 -65 31 -68 40 -67 199 0 79 3 147 7 150 3
4 21 0 39 -9 114 -52 276 -89 474 -108 113 -11 152 -10 290 4 181 20 315 49
384 84 14 7 30 13 36 13 6 0 17 7 24 15 28 34 35 9 38 -143z"/>
<path d="M6097 20574 c-3 -4 -45 -12 -93 -19 -48 -7 -101 -20 -118 -28 -17 -8
-59 -28 -93 -43 -63 -29 -82 -47 -21 -21 81 35 95 40 128 47 19 5 78 18 130
30 76 18 135 24 290 27 121 3 216 1 250 -6 30 -6 78 -16 105 -21 28 -6 88 -22
135 -37 260 -82 237 -182 -61 -260 -102 -27 -109 -28 -409 -28 -291 0 -308 1
-380 23 -41 13 -90 28 -109 34 -40 12 -111 54 -128 77 -7 9 -13 29 -13 44 0
16 -4 26 -10 22 -7 -4 -10 -263 -10 -743 l0 -738 36 -37 c20 -20 42 -37 48
-37 6 0 28 -9 49 -19 33 -17 70 -27 223 -61 72 -17 401 -23 520 -11 199 20
352 70 417 135 29 28 37 45 42 88 3 29 5 357 3 728 -4 773 3 719 -95 765 -28
14 -57 25 -63 25 -6 0 -24 7 -41 15 -70 37 -232 55 -484 55 -133 0 -245 -3
-248 -6z m903 -403 c0 -140 -7 -172 -46 -208 -86 -80 -241 -113 -559 -120
-263 -6 -417 13 -558 69 -120 48 -127 62 -127 239 0 113 3 139 14 139 8 0 43
-14 78 -30 34 -17 79 -33 98 -36 19 -3 85 -15 145 -27 90 -17 146 -21 310 -21
110 1 227 6 260 12 33 6 93 17 133 24 45 7 101 26 145 48 112 57 107 62 107
-89z m-14 -276 c16 -42 -65 -101 -186 -135 -194 -55 -231 -59 -470 -56 -226 4
-242 6 -405 51 -61 17 -147 55 -176 78 -21 16 -29 41 -19 57 7 11 13 11 32 -2
36 -24 216 -74 298 -83 124 -14 425 -17 534 -5 116 11 259 50 333 89 46 25 52
25 59 6z m8 -131 c3 -9 6 -74 6 -145 l0 -130 -37 -40 c-48 -50 -161 -91 -309
-114 -132 -19 -431 -20 -574 -1 -135 18 -292 70 -337 112 l-33 31 0 141 c0 77
4 143 8 146 4 2 41 -9 82 -26 308 -126 909 -112 1150 27 32 18 37 18 44 -1z
m-6 -406 c5 -45 -85 -99 -238 -142 -128 -36 -454 -47 -645 -22 -212 28 -375
99 -375 163 0 28 13 29 55 3 33 -20 148 -54 240 -71 146 -27 185 -31 328 -31
86 0 160 3 165 6 4 2 48 10 98 16 87 12 274 66 324 95 32 18 44 14 48 -17z m7
-255 c0 -137 -2 -153 -20 -173 -40 -46 -194 -97 -360 -121 -133 -19 -436 -16
-570 5 -146 24 -293 80 -321 121 -11 18 -18 138 -15 288 1 29 17 35 49 17 20
-11 75 -33 117 -48 64 -22 226 -51 355 -63 116 -10 154 -10 271 5 195 23 319
52 414 97 33 15 65 26 70 25 6 -2 10 -61 10 -153z"/>
<path d="M19253 20311 c-50 -8 -44 -3 -71 -68 -22 -51 -22 -58 -22 -667 0
-601 0 -616 21 -655 40 -77 -6 -73 867 -69 740 3 778 4 805 22 36 24 70 84 96
171 12 39 27 84 32 100 6 17 18 55 26 85 8 30 18 60 22 65 5 6 14 32 20 60 7
27 16 54 21 60 4 5 11 26 15 45 4 19 15 60 24 90 10 30 26 78 35 106 24 77 21
135 -8 167 -28 30 -45 35 -139 40 -46 2 -71 8 -78 18 -5 7 -9 52 -9 98 0 66
-4 90 -20 116 -39 63 -52 65 -528 65 -311 1 -434 4 -454 13 -15 7 -55 39 -88
71 l-62 59 -96 8 c-116 10 -350 9 -409 0z m488 -56 c15 -11 37 -35 49 -52 12
-18 43 -46 68 -63 l45 -30 453 0 453 0 26 -25 c22 -23 25 -34 25 -104 0 -54
-4 -82 -13 -90 -18 -14 -27 -4 -27 32 0 39 -28 95 -54 110 -33 18 -1384 17
-1418 -2 -48 -25 -51 -46 -59 -366 -5 -239 -10 -312 -24 -360 -16 -58 -51
-135 -60 -135 -3 0 -5 240 -5 533 0 473 2 535 16 556 l16 23 242 -4 c223 -3
243 -5 267 -23z m1036 -305 c9 -27 9 -39 -2 -55 -12 -20 -26 -20 -645 -25
l-632 -5 -24 -28 c-13 -15 -24 -35 -24 -43 0 -8 -4 -22 -10 -32 -5 -9 -19 -39
-30 -67 -31 -76 -45 -100 -55 -98 -14 4 -18 333 -5 367 l10 26 702 -2 703 -3
12 -35z m315 -127 c41 -47 32 -94 -98 -483 -117 -350 -144 -419 -166 -431 -25
-13 -1565 -10 -1592 3 -15 8 -17 18 -13 48 6 47 59 220 95 310 14 36 31 88 38
115 7 28 20 70 29 95 8 25 34 101 56 170 22 69 50 140 62 157 l22 33 776 0
c726 0 777 -1 791 -17z"/>
<path d="M4485 20245 c-274 -49 -325 -65 -411 -133 l-29 -24 0 -828 0 -828 24
-26 c45 -48 116 -79 301 -131 121 -34 474 -47 665 -24 138 16 314 68 383 114
87 58 85 49 83 337 -1 139 -3 501 -4 804 l-2 551 -28 36 c-48 63 -174 113
-360 143 -132 22 -518 27 -622 9z m502 -26 c123 -10 325 -53 374 -80 44 -22
88 -61 94 -80 9 -27 -22 -74 -67 -99 -21 -12 -87 -37 -146 -56 -90 -29 -137
-37 -296 -51 -176 -15 -200 -15 -350 0 -230 24 -385 67 -469 131 -23 17 -43
41 -45 52 -6 41 70 104 153 125 153 39 210 50 303 57 157 13 304 13 449 1z
m-832 -320 c31 -17 70 -35 88 -39 18 -5 57 -15 87 -24 30 -8 135 -23 232 -32
165 -16 191 -16 371 -1 106 9 207 21 223 26 16 5 56 15 89 22 33 7 87 25 121
41 34 15 66 28 73 28 9 0 12 -36 9 -149 l-3 -150 -30 -31 c-45 -47 -80 -65
-185 -93 -105 -29 -351 -56 -465 -52 -286 12 -471 43 -591 102 -82 39 -95 58
-99 146 -4 97 5 237 17 237 4 0 33 -14 63 -31z m3 -413 c32 -14 114 -39 182
-58 l125 -33 290 1 c312 1 285 -2 545 64 19 5 54 18 77 30 56 27 63 26 63 -11
0 -44 -14 -63 -67 -96 -108 -65 -297 -96 -588 -95 -261 0 -491 34 -595 87 -79
40 -132 98 -114 126 8 13 19 11 82 -15z m2 -157 c41 -20 118 -46 170 -58 52
-13 109 -28 125 -33 46 -15 425 -22 545 -9 125 13 293 53 363 87 85 40 84 41
91 -93 3 -65 4 -129 2 -143 -2 -14 -4 -30 -5 -36 0 -7 -17 -28 -37 -47 -82
-79 -312 -120 -671 -118 -234 0 -299 7 -453 48 -114 30 -159 52 -194 93 -26
31 -26 33 -26 192 0 88 3 158 8 156 4 -2 41 -20 82 -39z m-11 -415 c81 -39
267 -82 411 -95 148 -14 466 -5 555 15 116 26 213 55 256 75 62 30 79 28 79
-10 0 -22 -9 -40 -32 -61 -40 -37 -77 -53 -208 -89 -182 -50 -588 -62 -780
-22 -98 20 -196 47 -241 65 -71 31 -134 106 -114 138 9 14 11 13 74 -16z m-1
-165 c26 -11 56 -24 67 -30 11 -5 40 -13 65 -18 25 -5 95 -20 155 -32 96 -20
141 -23 350 -23 156 -1 256 3 285 11 25 6 86 21 135 33 50 12 123 35 163 51
40 16 77 27 82 24 6 -4 10 -67 10 -148 0 -148 -5 -167 -50 -205 -145 -122
-829 -156 -1153 -57 -82 25 -123 48 -159 90 -15 17 -17 43 -18 173 0 100 4
152 11 152 5 0 31 -9 57 -21z"/>
</g>
</svg>
