<svg xmlns="http://www.w3.org/2000/svg" fill="none" viewBox="21.6 0 222.96 107.12"><path d="M41.002 56.2h30.2v14h-49.6v-13l30-43.2h-30V0h49.6v13l-30.2 43.2Zm98.37-41.8-35 82.3h-18.4l12.8-28.4-22.7-53.9h19.1l12.9 34.9 12.8-34.9h18.5Zm23.283 9.3c2-3.067 4.5-5.467 7.5-7.2 3-1.8 6.334-2.7 10-2.7v18.1h-4.7c-4.266 0-7.466.933-9.6 2.8-2.133 1.8-3.2 5-3.2 9.6v25.9h-17.1V14.4h17.1v9.3Zm22.274 18.5c0-5.733 1.067-10.767 3.2-15.1 2.2-4.333 5.167-7.667 8.9-10 3.733-2.333 7.9-3.5 12.5-3.5 3.933 0 7.367.8 10.3 2.4 3 1.6 5.3 3.7 6.9 6.3v-7.9h17.1v55.8h-17.1v-7.9c-1.667 2.6-4 4.7-7 6.3-2.933 1.6-6.367 2.4-10.3 2.4-4.533 0-8.667-1.167-12.4-3.5-3.733-2.4-6.7-5.767-8.9-10.1-2.133-4.4-3.2-9.467-3.2-15.2Zm41.8.1c0-4.267-1.2-7.633-3.6-10.1-2.333-2.467-5.2-3.7-8.6-3.7-3.4 0-6.3 1.233-8.7 3.7-2.333 2.4-3.5 5.733-3.5 10s1.167 7.667 3.5 10.2c2.4 2.467 5.3 3.7 8.7 3.7 3.4 0 6.267-1.233 8.6-3.7 2.4-2.467 3.6-5.833 3.6-10.1Zm-92.537 48.461-3.24 11.08h-3.02l-2.02-7.74-2.02 7.74h-3.04l-3.26-11.08h2.84l1.96 8.44 2.12-8.44h2.96l2.08 8.42 1.96-8.42h2.68Zm8.435 11.26c-1.067 0-2.027-.233-2.88-.7a5.244 5.244 0 0 1-2.02-2.02c-.48-.866-.72-1.866-.72-3 0-1.133.246-2.133.74-3a5.205 5.205 0 0 1 2.06-2c.866-.48 1.833-.72 2.9-.72 1.066 0 2.033.24 2.9.72a5.085 5.085 0 0 1 2.04 2c.506.867.76 1.867.76 3 0 1.134-.26 2.134-.78 3a5.316 5.316 0 0 1-2.08 2.02c-.867.467-1.84.7-2.92.7Zm0-2.44c.506 0 .98-.12 1.42-.36a2.74 2.74 0 0 0 1.08-1.12c.266-.493.4-1.093.4-1.8 0-1.053-.28-1.86-.84-2.42a2.682 2.682 0 0 0-2.02-.86c-.8 0-1.474.287-2.02.86-.534.56-.8 1.367-.8 2.42 0 1.054.26 1.867.78 2.44.533.56 1.2.84 2 .84Zm12.634-7.1a3.959 3.959 0 0 1 1.4-1.38c.586-.333 1.253-.5 2-.5v2.94h-.74c-.88 0-1.547.207-2 .62-.44.414-.66 1.134-.66 2.16v5.52h-2.8v-11.08h2.8v1.72Zm13.846 9.36-3.76-4.72v4.72h-2.8v-14.8h2.8v8.42l3.72-4.7h3.64l-4.88 5.56 4.92 5.52h-3.64Zm11.359.18c-.906 0-1.72-.16-2.44-.48-.72-.333-1.293-.78-1.72-1.34a3.41 3.41 0 0 1-.68-1.86h2.82c.054.427.26.78.62 1.06.374.28.834.42 1.38.42.534 0 .947-.106 1.24-.32.307-.213.46-.486.46-.82 0-.36-.186-.626-.56-.8-.36-.186-.94-.386-1.74-.6-.826-.2-1.506-.406-2.04-.62a3.628 3.628 0 0 1-1.36-.98c-.373-.44-.56-1.033-.56-1.78 0-.613.174-1.173.52-1.68.36-.506.867-.906 1.52-1.2.667-.293 1.447-.44 2.34-.44 1.32 0 2.374.334 3.16 1 .787.654 1.22 1.54 1.3 2.66h-2.68c-.04-.44-.226-.786-.56-1.04-.32-.266-.753-.4-1.3-.4-.506 0-.9.094-1.18.28a.9.9 0 0 0-.4.78c0 .374.187.66.56.86.374.187.954.38 1.74.58.8.2 1.46.407 1.98.62.52.214.967.547 1.34 1 .387.44.587 1.027.6 1.76 0 .64-.18 1.214-.54 1.72-.346.507-.853.907-1.52 1.2-.653.28-1.42.42-2.3.42Zm11.459-9.66c.36-.506.853-.926 1.48-1.26.64-.346 1.366-.52 2.18-.52.946 0 1.8.234 2.56.7.773.467 1.38 1.134 1.82 2 .453.854.68 1.847.68 2.98 0 1.134-.227 2.14-.68 3.02-.44.867-1.047 1.54-1.82 2.02-.76.48-1.614.72-2.56.72-.814 0-1.534-.166-2.16-.5a4.62 4.62 0 0 1-1.5-1.26v6.86h-2.8v-16.36h2.8v1.6Zm5.86 3.9c0-.666-.14-1.24-.42-1.72a2.741 2.741 0 0 0-1.08-1.12 2.84 2.84 0 0 0-1.44-.38 2.8 2.8 0 0 0-1.44.4c-.44.254-.8.627-1.08 1.12-.267.494-.4 1.074-.4 1.74 0 .667.133 1.247.4 1.74.28.494.64.874 1.08 1.14.453.254.933.38 1.44.38.52 0 1-.133 1.44-.4a2.878 2.878 0 0 0 1.08-1.14c.28-.493.42-1.08.42-1.76Zm6.174 0c0-1.12.22-2.113.66-2.98.454-.866 1.06-1.533 1.82-2a4.901 4.901 0 0 1 2.58-.7c.827 0 1.547.167 2.16.5.627.334 1.127.754 1.5 1.26v-1.58h2.82v11.08h-2.82v-1.62c-.36.52-.86.954-1.5 1.3-.626.334-1.353.5-2.18.5-.933 0-1.786-.24-2.56-.72-.76-.48-1.366-1.153-1.82-2.02-.44-.88-.66-1.886-.66-3.02Zm8.72.04c0-.68-.133-1.26-.4-1.74a2.729 2.729 0 0 0-1.08-1.12 2.83 2.83 0 0 0-1.46-.4c-.52 0-1 .127-1.44.38-.44.254-.8.627-1.08 1.12-.266.48-.4 1.054-.4 1.72 0 .667.134 1.254.4 1.76.28.494.64.874 1.08 1.14.454.267.934.4 1.44.4.52 0 1.007-.126 1.46-.38a2.9 2.9 0 0 0 1.08-1.12c.267-.493.4-1.08.4-1.76Zm6.835 0c0-1.146.233-2.146.7-3a4.92 4.92 0 0 1 1.94-2c.827-.48 1.773-.72 2.84-.72 1.373 0 2.507.347 3.4 1.04.907.68 1.513 1.64 1.82 2.88h-3.02a2.135 2.135 0 0 0-.82-1.12c-.373-.28-.84-.42-1.4-.42-.8 0-1.433.294-1.9.88-.467.574-.7 1.394-.7 2.46 0 1.054.233 1.874.7 2.46.467.574 1.1.86 1.9.86 1.133 0 1.873-.506 2.22-1.52h3.02c-.307 1.2-.913 2.154-1.82 2.86-.907.707-2.04 1.06-3.4 1.06-1.067 0-2.013-.233-2.84-.7a5.087 5.087 0 0 1-1.94-2c-.467-.866-.7-1.873-.7-3.02Zm25.051-.24c0 .4-.026.76-.08 1.08h-8.1c.067.8.347 1.427.84 1.88.494.454 1.1.68 1.82.68 1.04 0 1.78-.446 2.22-1.34h3.02c-.32 1.067-.933 1.947-1.84 2.64-.906.68-2.02 1.02-3.34 1.02-1.066 0-2.026-.233-2.88-.7a5.151 5.151 0 0 1-1.98-2.02c-.466-.866-.7-1.866-.7-3 0-1.146.234-2.153.7-3.02a4.887 4.887 0 0 1 1.96-2c.84-.466 1.807-.7 2.9-.7 1.054 0 1.994.227 2.82.68a4.69 4.69 0 0 1 1.94 1.94c.467.827.7 1.78.7 2.86Zm-2.9-.8c-.013-.72-.273-1.293-.78-1.72-.506-.44-1.126-.66-1.86-.66-.693 0-1.28.214-1.76.64-.466.414-.753.994-.86 1.74h5.26Z" fill="#000"/></svg>